<svg width="20" height="20" viewBox="0 0 20 20" fill="none" xmlns="http://www.w3.org/2000/svg">
<path d="M10 8.12518V13.7502M10 13.7502L7.50005 11.2502M10 13.7502L12.5 11.2502M5.62505 16.2502C4.73291 16.2511 3.86965 15.934 3.1903 15.3558C2.51095 14.7775 2.06001 13.976 1.91847 13.0951C1.77694 12.2143 1.95407 11.3118 2.41807 10.5498C2.88206 9.78785 3.60252 9.21625 4.45005 8.93768C4.2323 7.82199 4.45735 6.66535 5.07754 5.71269C5.69772 4.76004 6.66435 4.08618 7.77273 3.83381C8.8811 3.58143 10.0442 3.77037 11.0157 4.36061C11.9872 4.95084 12.6908 5.89603 12.9775 6.99601C13.4209 6.85183 13.8957 6.83448 14.3484 6.94593C14.8011 7.05738 15.2136 7.29318 15.5393 7.62671C15.865 7.96024 16.091 8.37821 16.1917 8.8334C16.2924 9.28859 16.2639 9.76287 16.1092 10.2027C16.7914 10.4633 17.3609 10.9544 17.7189 11.591C18.0768 12.2275 18.2006 12.9693 18.0689 13.6876C17.9372 14.4059 17.5581 15.0554 16.9976 15.5235C16.437 15.9916 15.7303 16.2487 15 16.2502H5.62505Z" stroke="white" stroke-width="1.5" stroke-linecap="round" stroke-linejoin="round"/>
</svg>
