<svg width="12" height="12" viewBox="0 0 12 12" fill="none" xmlns="http://www.w3.org/2000/svg">
<path fill-rule="evenodd" clip-rule="evenodd" d="M6.48878 11C6.36943 11 6.25497 10.9521 6.17058 10.8669C6.08619 10.7816 6.03878 10.666 6.03878 10.5454V2.55118L2.75678 5.86646C2.67147 5.94676 2.55864 5.99047 2.44206 5.98839C2.32548 5.98631 2.21425 5.93861 2.1318 5.85532C2.04935 5.77204 2.00213 5.65968 2.00007 5.54192C1.99801 5.42415 2.04129 5.31018 2.12077 5.22401L6.17078 1.13294C6.25515 1.04781 6.36952 1 6.48878 1C6.60803 1 6.7224 1.04781 6.80677 1.13294L10.8568 5.22401C10.901 5.26563 10.9364 5.31581 10.961 5.37157C10.9856 5.42733 10.9989 5.48752 10.9999 5.54856C11.001 5.60959 10.9899 5.67022 10.9672 5.72682C10.9446 5.78342 10.9109 5.83484 10.8682 5.878C10.8255 5.92116 10.7746 5.95519 10.7185 5.97806C10.6625 6.00092 10.6025 6.01215 10.5421 6.01107C10.4816 6.00999 10.4221 5.99663 10.3669 5.97179C10.3117 5.94694 10.262 5.91112 10.2208 5.86646L6.93878 2.55118V10.5454C6.93878 10.666 6.89136 10.7816 6.80697 10.8669C6.72258 10.9521 6.60812 11 6.48878 11Z" fill="#39564C"/>
</svg>
