<svg width="26" height="26" viewBox="0 0 26 26" fill="none" xmlns="http://www.w3.org/2000/svg">
<g clip-path="url(#clip0_13_27)">
<path d="M13 26C20.1797 26 26 20.1797 26 13C26 5.8203 20.1797 0 13 0C5.8203 0 0 5.8203 0 13C0 20.1797 5.8203 26 13 26Z" fill="#2DAAE1"/>
<path d="M21.3354 7.82881C20.7222 8.10091 20.0636 8.28485 19.3711 8.36753C20.0778 7.94434 20.6192 7.27372 20.8749 6.47558C20.2035 6.87431 19.4688 7.15502 18.7027 7.3055C18.0791 6.64089 17.19 6.22595 16.2063 6.22595C14.3182 6.22595 12.787 7.7566 12.787 9.64581C12.787 9.91349 12.8171 10.1746 12.8751 10.4254C10.0328 10.2825 7.5129 8.92104 5.82621 6.85225C5.53169 7.3575 5.36311 7.94495 5.36311 8.57173C5.36311 9.75807 5.96693 10.8048 6.88444 11.4179C6.34129 11.4011 5.81006 11.2545 5.33517 10.9904V11.0336C5.33517 12.6907 6.51382 14.0724 8.07841 14.3867C7.79099 14.4654 7.48937 14.5066 7.17732 14.5066C6.9567 14.5066 6.74265 14.4857 6.53355 14.4464C6.96875 15.8046 8.23176 16.7933 9.72784 16.8212C8.5574 17.7387 7.08259 18.2856 5.48079 18.2856C5.2049 18.2856 4.93223 18.2692 4.66455 18.2369C6.17825 19.2075 7.97551 19.7741 9.90688 19.7741C16.197 19.7741 19.6372 14.563 19.6372 10.0438C19.6372 9.89548 19.6339 9.74822 19.6267 9.60149C20.297 9.1167 20.8756 8.51644 21.3354 7.82881Z" fill="white"/>
</g>
<defs>
<clipPath id="clip0_13_27">
<rect width="26" height="26" fill="white"/>
</clipPath>
</defs>
</svg>
