<svg width="16" height="16" viewBox="0 0 16 16" fill="none" xmlns="http://www.w3.org/2000/svg">
<path d="M12.6707 2.47003C12.7953 2.42476 12.8969 2.33184 12.953 2.21169C13.0091 2.09154 13.0153 1.95401 12.97 1.82936C12.9247 1.70471 12.8318 1.60314 12.7117 1.54701C12.5915 1.49087 12.454 1.48476 12.3293 1.53003L4 4.55869V2.00003C4 1.86742 3.94732 1.74024 3.85355 1.64647C3.75978 1.55271 3.6326 1.50003 3.5 1.50003H2.5C2.36739 1.50003 2.24021 1.55271 2.14644 1.64647C2.05268 1.74024 2 1.86742 2 2.00003V5.28669L1.32933 5.53003C1.20468 5.57529 1.10311 5.66822 1.04698 5.78837C0.990841 5.90852 0.984733 6.04604 1.03 6.17069C1.07526 6.29535 1.16819 6.39691 1.28834 6.45305C1.40848 6.50918 1.54601 6.51529 1.67066 6.47003L12.6707 2.47003Z" fill="white"/>
<path fill-rule="evenodd" clip-rule="evenodd" d="M2.01267 7.41001L12 3.77802V6.06002L14.6707 7.03068C14.7953 7.07595 14.8969 7.16887 14.953 7.28902C15.0092 7.40917 15.0153 7.5467 14.97 7.67135C14.9247 7.796 14.8318 7.89757 14.7117 7.9537C14.5915 8.00984 14.454 8.01595 14.3293 7.97068L14 7.85068V13.5007H14.5C14.6326 13.5007 14.7598 13.5534 14.8536 13.6471C14.9473 13.7409 15 13.8681 15 14.0007C15 14.1333 14.9473 14.2605 14.8536 14.3542C14.7598 14.448 14.6326 14.5007 14.5 14.5007H1.5C1.36739 14.5007 1.24021 14.448 1.14645 14.3542C1.05268 14.2605 1 14.1333 1 14.0007C1 13.8681 1.05268 13.7409 1.14645 13.6471C1.24021 13.5534 1.36739 13.5007 1.5 13.5007H2V7.41468L2.01267 7.41068V7.41001ZM12 13.5V7.12335L13 7.48668V13.5H12ZM6 9.50001C5.86739 9.50001 5.74021 9.55269 5.64645 9.64646C5.55268 9.74023 5.5 9.86741 5.5 10V13C5.5 13.276 5.724 13.5 6 13.5H8C8.13261 13.5 8.25978 13.4473 8.35355 13.3536C8.44732 13.2598 8.5 13.1326 8.5 13V10C8.5 9.86741 8.44732 9.74023 8.35355 9.64646C8.25978 9.55269 8.13261 9.50001 8 9.50001H6Z" fill="white"/>
</svg>
