<svg width="26" height="26" viewBox="0 0 26 26" fill="none" xmlns="http://www.w3.org/2000/svg">
<g clip-path="url(#clip0_120_96)">
<path d="M13 26C20.1797 26 26 20.1797 26 13C26 5.8203 20.1797 0 13 0C5.8203 0 0 5.8203 0 13C0 20.1797 5.8203 26 13 26Z" fill="#2DAAE1"/>
<path d="M21.3354 7.82894C20.7222 8.10103 20.0636 8.28497 19.3711 8.36765C20.0778 7.94446 20.6192 7.27384 20.8749 6.4757C20.2035 6.87443 19.4688 7.15514 18.7027 7.30563C18.0791 6.64102 17.19 6.22607 16.2063 6.22607C14.3182 6.22607 12.787 7.75672 12.787 9.64594C12.787 9.91362 12.8171 10.1748 12.8751 10.4255C10.0328 10.2826 7.5129 8.92116 5.82621 6.85237C5.53169 7.35763 5.36311 7.94508 5.36311 8.57186C5.36311 9.75819 5.96693 10.8049 6.88444 11.418C6.34129 11.4012 5.81006 11.2546 5.33517 10.9905V11.0337C5.33517 12.6908 6.51382 14.0726 8.07841 14.3868C7.79099 14.4656 7.48937 14.5067 7.17732 14.5067C6.9567 14.5067 6.74265 14.4858 6.53355 14.4465C6.96875 15.8047 8.23176 16.7934 9.72784 16.8213C8.5574 17.7388 7.08259 18.2857 5.48079 18.2857C5.2049 18.2857 4.93223 18.2693 4.66455 18.237C6.17825 19.2076 7.97551 19.7742 9.90688 19.7742C16.197 19.7742 19.6372 14.5631 19.6372 10.044C19.6372 9.89561 19.6339 9.74835 19.6267 9.60162C20.297 9.11682 20.8756 8.51656 21.3354 7.82894Z" fill="white"/>
</g>
<defs>
<clipPath id="clip0_120_96">
<rect width="26" height="26" fill="white"/>
</clipPath>
</defs>
</svg>
