<svg width="141" height="141" viewBox="0 0 141 141" fill="none" xmlns="http://www.w3.org/2000/svg">
<path d="M0 0H4.40625V4.40625H0V0Z" fill="black"/>
<path d="M4.40625 0H9.36328V4.40625H4.40625V0Z" fill="black"/>
<path d="M8.8125 0H13.7695V4.40625H8.8125V0Z" fill="black"/>
<path d="M12.668 0H17.625V4.40625H12.668V0Z" fill="black"/>
<path d="M17.0742 0H21.4805V4.40625H17.0742V0Z" fill="black"/>
<path d="M21.4805 0H26.4375V4.40625H21.4805V0Z" fill="black"/>
<path d="M25.8867 0H30.8438V4.40625H25.8867V0Z" fill="black"/>
<path d="M29.7422 0H34.6992V4.40625H29.7422V0Z" fill="white"/>
<path d="M34.1484 0H38.5547V4.40625H34.1484V0Z" fill="white"/>
<path d="M38.5547 0H43.5117V4.40625H38.5547V0Z" fill="white"/>
<path d="M42.9609 0H47.918V4.40625H42.9609V0Z" fill="black"/>
<path d="M46.8164 0H51.7734V4.40625H46.8164V0Z" fill="white"/>
<path d="M51.2227 0H55.6289V4.40625H51.2227V0Z" fill="black"/>
<path d="M55.6289 0H60.5859V4.40625H55.6289V0Z" fill="black"/>
<path d="M60.0352 0H64.9922V4.40625H60.0352V0Z" fill="black"/>
<path d="M63.8906 0H68.8477V4.40625H63.8906V0Z" fill="black"/>
<path d="M68.2969 0H72.7031V4.40625H68.2969V0Z" fill="white"/>
<path d="M72.7031 0H77.6602V4.40625H72.7031V0Z" fill="white"/>
<path d="M77.1094 0H82.0664V4.40625H77.1094V0Z" fill="white"/>
<path d="M80.9648 0H85.9219V4.40625H80.9648V0Z" fill="black"/>
<path d="M85.3711 0H89.7773V4.40625H85.3711V0Z" fill="black"/>
<path d="M89.7773 0H94.7344V4.40625H89.7773V0Z" fill="black"/>
<path d="M94.1836 0H99.1406V4.40625H94.1836V0Z" fill="black"/>
<path d="M98.0391 0H102.996V4.40625H98.0391V0Z" fill="black"/>
<path d="M102.445 0H106.852V4.40625H102.445V0Z" fill="white"/>
<path d="M106.852 0H111.809V4.40625H106.852V0Z" fill="white"/>
<path d="M111.258 0H116.215V4.40625H111.258V0Z" fill="black"/>
<path d="M115.113 0H120.07V4.40625H115.113V0Z" fill="black"/>
<path d="M119.52 0H123.926V4.40625H119.52V0Z" fill="black"/>
<path d="M123.926 0H128.883V4.40625H123.926V0Z" fill="black"/>
<path d="M128.332 0H133.289V4.40625H128.332V0Z" fill="black"/>
<path d="M132.188 0H137.145V4.40625H132.188V0Z" fill="black"/>
<path d="M136.594 0H141V4.40625H136.594V0Z" fill="black"/>
<path d="M0 4.40625H4.40625V9.36328H0V4.40625Z" fill="black"/>
<path d="M4.40625 4.40625H9.36328V9.36328H4.40625V4.40625Z" fill="white"/>
<path d="M8.8125 4.40625H13.7695V9.36328H8.8125V4.40625Z" fill="white"/>
<path d="M12.668 4.40625H17.625V9.36328H12.668V4.40625Z" fill="white"/>
<path d="M17.0742 4.40625H21.4805V9.36328H17.0742V4.40625Z" fill="white"/>
<path d="M21.4805 4.40625H26.4375V9.36328H21.4805V4.40625Z" fill="white"/>
<path d="M25.8867 4.40625H30.8438V9.36328H25.8867V4.40625Z" fill="black"/>
<path d="M29.7422 4.40625H34.6992V9.36328H29.7422V4.40625Z" fill="white"/>
<path d="M34.1484 4.40625H38.5547V9.36328H34.1484V4.40625Z" fill="black"/>
<path d="M38.5547 4.40625H43.5117V9.36328H38.5547V4.40625Z" fill="white"/>
<path d="M42.9609 4.40625H47.918V9.36328H42.9609V4.40625Z" fill="black"/>
<path d="M46.8164 4.40625H51.7734V9.36328H46.8164V4.40625Z" fill="white"/>
<path d="M51.2227 4.40625H55.6289V9.36328H51.2227V4.40625Z" fill="white"/>
<path d="M55.6289 4.40625H60.5859V9.36328H55.6289V4.40625Z" fill="black"/>
<path d="M60.0352 4.40625H64.9922V9.36328H60.0352V4.40625Z" fill="black"/>
<path d="M63.8906 4.40625H68.8477V9.36328H63.8906V4.40625Z" fill="black"/>
<path d="M68.2969 4.40625H72.7031V9.36328H68.2969V4.40625Z" fill="black"/>
<path d="M72.7031 4.40625H77.6602V9.36328H72.7031V4.40625Z" fill="black"/>
<path d="M77.1094 4.40625H82.0664V9.36328H77.1094V4.40625Z" fill="black"/>
<path d="M80.9648 4.40625H85.9219V9.36328H80.9648V4.40625Z" fill="white"/>
<path d="M85.3711 4.40625H89.7773V9.36328H85.3711V4.40625Z" fill="black"/>
<path d="M89.7773 4.40625H94.7344V9.36328H89.7773V4.40625Z" fill="black"/>
<path d="M94.1836 4.40625H99.1406V9.36328H94.1836V4.40625Z" fill="white"/>
<path d="M98.0391 4.40625H102.996V9.36328H98.0391V4.40625Z" fill="white"/>
<path d="M102.445 4.40625H106.852V9.36328H102.445V4.40625Z" fill="white"/>
<path d="M106.852 4.40625H111.809V9.36328H106.852V4.40625Z" fill="white"/>
<path d="M111.258 4.40625H116.215V9.36328H111.258V4.40625Z" fill="black"/>
<path d="M115.113 4.40625H120.07V9.36328H115.113V4.40625Z" fill="white"/>
<path d="M119.52 4.40625H123.926V9.36328H119.52V4.40625Z" fill="white"/>
<path d="M123.926 4.40625H128.883V9.36328H123.926V4.40625Z" fill="white"/>
<path d="M128.332 4.40625H133.289V9.36328H128.332V4.40625Z" fill="white"/>
<path d="M132.188 4.40625H137.145V9.36328H132.188V4.40625Z" fill="white"/>
<path d="M136.594 4.40625H141V9.36328H136.594V4.40625Z" fill="black"/>
<path d="M0 8.8125H4.40625V13.7695H0V8.8125Z" fill="black"/>
<path d="M4.40625 8.8125H9.36328V13.7695H4.40625V8.8125Z" fill="white"/>
<path d="M8.8125 8.8125H13.7695V13.7695H8.8125V8.8125Z" fill="black"/>
<path d="M12.668 8.8125H17.625V13.7695H12.668V8.8125Z" fill="black"/>
<path d="M17.0742 8.8125H21.4805V13.7695H17.0742V8.8125Z" fill="black"/>
<path d="M21.4805 8.8125H26.4375V13.7695H21.4805V8.8125Z" fill="white"/>
<path d="M25.8867 8.8125H30.8438V13.7695H25.8867V8.8125Z" fill="black"/>
<path d="M29.7422 8.8125H34.6992V13.7695H29.7422V8.8125Z" fill="white"/>
<path d="M34.1484 8.8125H38.5547V13.7695H34.1484V8.8125Z" fill="white"/>
<path d="M38.5547 8.8125H43.5117V13.7695H38.5547V8.8125Z" fill="white"/>
<path d="M42.9609 8.8125H47.918V13.7695H42.9609V8.8125Z" fill="white"/>
<path d="M46.8164 8.8125H51.7734V13.7695H46.8164V8.8125Z" fill="white"/>
<path d="M51.2227 8.8125H55.6289V13.7695H51.2227V8.8125Z" fill="black"/>
<path d="M55.6289 8.8125H60.5859V13.7695H55.6289V8.8125Z" fill="black"/>
<path d="M60.0352 8.8125H64.9922V13.7695H60.0352V8.8125Z" fill="white"/>
<path d="M63.8906 8.8125H68.8477V13.7695H63.8906V8.8125Z" fill="black"/>
<path d="M68.2969 8.8125H72.7031V13.7695H68.2969V8.8125Z" fill="white"/>
<path d="M72.7031 8.8125H77.6602V13.7695H72.7031V8.8125Z" fill="white"/>
<path d="M77.1094 8.8125H82.0664V13.7695H77.1094V8.8125Z" fill="black"/>
<path d="M80.9648 8.8125H85.9219V13.7695H80.9648V8.8125Z" fill="white"/>
<path d="M85.3711 8.8125H89.7773V13.7695H85.3711V8.8125Z" fill="white"/>
<path d="M89.7773 8.8125H94.7344V13.7695H89.7773V8.8125Z" fill="black"/>
<path d="M94.1836 8.8125H99.1406V13.7695H94.1836V8.8125Z" fill="white"/>
<path d="M98.0391 8.8125H102.996V13.7695H98.0391V8.8125Z" fill="white"/>
<path d="M102.445 8.8125H106.852V13.7695H102.445V8.8125Z" fill="black"/>
<path d="M106.852 8.8125H111.809V13.7695H106.852V8.8125Z" fill="white"/>
<path d="M111.258 8.8125H116.215V13.7695H111.258V8.8125Z" fill="black"/>
<path d="M115.113 8.8125H120.07V13.7695H115.113V8.8125Z" fill="white"/>
<path d="M119.52 8.8125H123.926V13.7695H119.52V8.8125Z" fill="black"/>
<path d="M123.926 8.8125H128.883V13.7695H123.926V8.8125Z" fill="black"/>
<path d="M128.332 8.8125H133.289V13.7695H128.332V8.8125Z" fill="black"/>
<path d="M132.188 8.8125H137.145V13.7695H132.188V8.8125Z" fill="white"/>
<path d="M136.594 8.8125H141V13.7695H136.594V8.8125Z" fill="black"/>
<path d="M0 12.668H4.40625V17.625H0V12.668Z" fill="black"/>
<path d="M4.40625 12.668H9.36328V17.625H4.40625V12.668Z" fill="white"/>
<path d="M8.8125 12.668H13.7695V17.625H8.8125V12.668Z" fill="black"/>
<path d="M12.668 12.668H17.625V17.625H12.668V12.668Z" fill="black"/>
<path d="M17.0742 12.668H21.4805V17.625H17.0742V12.668Z" fill="black"/>
<path d="M21.4805 12.668H26.4375V17.625H21.4805V12.668Z" fill="white"/>
<path d="M25.8867 12.668H30.8438V17.625H25.8867V12.668Z" fill="black"/>
<path d="M29.7422 12.668H34.6992V17.625H29.7422V12.668Z" fill="white"/>
<path d="M34.1484 12.668H38.5547V17.625H34.1484V12.668Z" fill="black"/>
<path d="M38.5547 12.668H43.5117V17.625H38.5547V12.668Z" fill="black"/>
<path d="M42.9609 12.668H47.918V17.625H42.9609V12.668Z" fill="black"/>
<path d="M46.8164 12.668H51.7734V17.625H46.8164V12.668Z" fill="white"/>
<path d="M51.2227 12.668H55.6289V17.625H51.2227V12.668Z" fill="black"/>
<path d="M55.6289 12.668H60.5859V17.625H55.6289V12.668Z" fill="white"/>
<path d="M60.0352 12.668H64.9922V17.625H60.0352V12.668Z" fill="black"/>
<path d="M63.8906 12.668H68.8477V17.625H63.8906V12.668Z" fill="black"/>
<path d="M68.2969 12.668H72.7031V17.625H68.2969V12.668Z" fill="white"/>
<path d="M72.7031 12.668H77.6602V17.625H72.7031V12.668Z" fill="white"/>
<path d="M77.1094 12.668H82.0664V17.625H77.1094V12.668Z" fill="white"/>
<path d="M80.9648 12.668H85.9219V17.625H80.9648V12.668Z" fill="white"/>
<path d="M85.3711 12.668H89.7773V17.625H85.3711V12.668Z" fill="black"/>
<path d="M89.7773 12.668H94.7344V17.625H89.7773V12.668Z" fill="white"/>
<path d="M94.1836 12.668H99.1406V17.625H94.1836V12.668Z" fill="black"/>
<path d="M98.0391 12.668H102.996V17.625H98.0391V12.668Z" fill="white"/>
<path d="M102.445 12.668H106.852V17.625H102.445V12.668Z" fill="black"/>
<path d="M106.852 12.668H111.809V17.625H106.852V12.668Z" fill="white"/>
<path d="M111.258 12.668H116.215V17.625H111.258V12.668Z" fill="black"/>
<path d="M115.113 12.668H120.07V17.625H115.113V12.668Z" fill="white"/>
<path d="M119.52 12.668H123.926V17.625H119.52V12.668Z" fill="black"/>
<path d="M123.926 12.668H128.883V17.625H123.926V12.668Z" fill="black"/>
<path d="M128.332 12.668H133.289V17.625H128.332V12.668Z" fill="black"/>
<path d="M132.188 12.668H137.145V17.625H132.188V12.668Z" fill="white"/>
<path d="M136.594 12.668H141V17.625H136.594V12.668Z" fill="black"/>
<path d="M0 17.0742H4.40625V21.4805H0V17.0742Z" fill="black"/>
<path d="M4.40625 17.0742H9.36328V21.4805H4.40625V17.0742Z" fill="white"/>
<path d="M8.8125 17.0742H13.7695V21.4805H8.8125V17.0742Z" fill="black"/>
<path d="M12.668 17.0742H17.625V21.4805H12.668V17.0742Z" fill="black"/>
<path d="M17.0742 17.0742H21.4805V21.4805H17.0742V17.0742Z" fill="black"/>
<path d="M21.4805 17.0742H26.4375V21.4805H21.4805V17.0742Z" fill="white"/>
<path d="M25.8867 17.0742H30.8438V21.4805H25.8867V17.0742Z" fill="black"/>
<path d="M29.7422 17.0742H34.6992V21.4805H29.7422V17.0742Z" fill="white"/>
<path d="M34.1484 17.0742H38.5547V21.4805H34.1484V17.0742Z" fill="white"/>
<path d="M38.5547 17.0742H43.5117V21.4805H38.5547V17.0742Z" fill="black"/>
<path d="M42.9609 17.0742H47.918V21.4805H42.9609V17.0742Z" fill="white"/>
<path d="M46.8164 17.0742H51.7734V21.4805H46.8164V17.0742Z" fill="white"/>
<path d="M51.2227 17.0742H55.6289V21.4805H51.2227V17.0742Z" fill="white"/>
<path d="M55.6289 17.0742H60.5859V21.4805H55.6289V17.0742Z" fill="white"/>
<path d="M60.0352 17.0742H64.9922V21.4805H60.0352V17.0742Z" fill="white"/>
<path d="M63.8906 17.0742H68.8477V21.4805H63.8906V17.0742Z" fill="black"/>
<path d="M68.2969 17.0742H72.7031V21.4805H68.2969V17.0742Z" fill="black"/>
<path d="M72.7031 17.0742H77.6602V21.4805H72.7031V17.0742Z" fill="white"/>
<path d="M77.1094 17.0742H82.0664V21.4805H77.1094V17.0742Z" fill="black"/>
<path d="M80.9648 17.0742H85.9219V21.4805H80.9648V17.0742Z" fill="black"/>
<path d="M85.3711 17.0742H89.7773V21.4805H85.3711V17.0742Z" fill="black"/>
<path d="M89.7773 17.0742H94.7344V21.4805H89.7773V17.0742Z" fill="black"/>
<path d="M94.1836 17.0742H99.1406V21.4805H94.1836V17.0742Z" fill="black"/>
<path d="M98.0391 17.0742H102.996V21.4805H98.0391V17.0742Z" fill="black"/>
<path d="M102.445 17.0742H106.852V21.4805H102.445V17.0742Z" fill="white"/>
<path d="M106.852 17.0742H111.809V21.4805H106.852V17.0742Z" fill="white"/>
<path d="M111.258 17.0742H116.215V21.4805H111.258V17.0742Z" fill="black"/>
<path d="M115.113 17.0742H120.07V21.4805H115.113V17.0742Z" fill="white"/>
<path d="M119.52 17.0742H123.926V21.4805H119.52V17.0742Z" fill="black"/>
<path d="M123.926 17.0742H128.883V21.4805H123.926V17.0742Z" fill="black"/>
<path d="M128.332 17.0742H133.289V21.4805H128.332V17.0742Z" fill="black"/>
<path d="M132.188 17.0742H137.145V21.4805H132.188V17.0742Z" fill="white"/>
<path d="M136.594 17.0742H141V21.4805H136.594V17.0742Z" fill="black"/>
<path d="M0 21.4805H4.40625V26.4375H0V21.4805Z" fill="black"/>
<path d="M4.40625 21.4805H9.36328V26.4375H4.40625V21.4805Z" fill="white"/>
<path d="M8.8125 21.4805H13.7695V26.4375H8.8125V21.4805Z" fill="white"/>
<path d="M12.668 21.4805H17.625V26.4375H12.668V21.4805Z" fill="white"/>
<path d="M17.0742 21.4805H21.4805V26.4375H17.0742V21.4805Z" fill="white"/>
<path d="M21.4805 21.4805H26.4375V26.4375H21.4805V21.4805Z" fill="white"/>
<path d="M25.8867 21.4805H30.8438V26.4375H25.8867V21.4805Z" fill="black"/>
<path d="M29.7422 21.4805H34.6992V26.4375H29.7422V21.4805Z" fill="white"/>
<path d="M34.1484 21.4805H38.5547V26.4375H34.1484V21.4805Z" fill="black"/>
<path d="M38.5547 21.4805H43.5117V26.4375H38.5547V21.4805Z" fill="black"/>
<path d="M42.9609 21.4805H47.918V26.4375H42.9609V21.4805Z" fill="white"/>
<path d="M46.8164 21.4805H51.7734V26.4375H46.8164V21.4805Z" fill="black"/>
<path d="M51.2227 21.4805H55.6289V26.4375H51.2227V21.4805Z" fill="black"/>
<path d="M55.6289 21.4805H60.5859V26.4375H55.6289V21.4805Z" fill="white"/>
<path d="M60.0352 21.4805H64.9922V26.4375H60.0352V21.4805Z" fill="white"/>
<path d="M63.8906 21.4805H68.8477V26.4375H63.8906V21.4805Z" fill="white"/>
<path d="M68.2969 21.4805H72.7031V26.4375H68.2969V21.4805Z" fill="white"/>
<path d="M72.7031 21.4805H77.6602V26.4375H72.7031V21.4805Z" fill="black"/>
<path d="M77.1094 21.4805H82.0664V26.4375H77.1094V21.4805Z" fill="black"/>
<path d="M80.9648 21.4805H85.9219V26.4375H80.9648V21.4805Z" fill="white"/>
<path d="M85.3711 21.4805H89.7773V26.4375H85.3711V21.4805Z" fill="black"/>
<path d="M89.7773 21.4805H94.7344V26.4375H89.7773V21.4805Z" fill="black"/>
<path d="M94.1836 21.4805H99.1406V26.4375H94.1836V21.4805Z" fill="white"/>
<path d="M98.0391 21.4805H102.996V26.4375H98.0391V21.4805Z" fill="white"/>
<path d="M102.445 21.4805H106.852V26.4375H102.445V21.4805Z" fill="black"/>
<path d="M106.852 21.4805H111.809V26.4375H106.852V21.4805Z" fill="white"/>
<path d="M111.258 21.4805H116.215V26.4375H111.258V21.4805Z" fill="black"/>
<path d="M115.113 21.4805H120.07V26.4375H115.113V21.4805Z" fill="white"/>
<path d="M119.52 21.4805H123.926V26.4375H119.52V21.4805Z" fill="white"/>
<path d="M123.926 21.4805H128.883V26.4375H123.926V21.4805Z" fill="white"/>
<path d="M128.332 21.4805H133.289V26.4375H128.332V21.4805Z" fill="white"/>
<path d="M132.188 21.4805H137.145V26.4375H132.188V21.4805Z" fill="white"/>
<path d="M136.594 21.4805H141V26.4375H136.594V21.4805Z" fill="black"/>
<path d="M0 25.8867H4.40625V30.8438H0V25.8867Z" fill="black"/>
<path d="M4.40625 25.8867H9.36328V30.8438H4.40625V25.8867Z" fill="black"/>
<path d="M8.8125 25.8867H13.7695V30.8438H8.8125V25.8867Z" fill="black"/>
<path d="M12.668 25.8867H17.625V30.8438H12.668V25.8867Z" fill="black"/>
<path d="M17.0742 25.8867H21.4805V30.8438H17.0742V25.8867Z" fill="black"/>
<path d="M21.4805 25.8867H26.4375V30.8438H21.4805V25.8867Z" fill="black"/>
<path d="M25.8867 25.8867H30.8438V30.8438H25.8867V25.8867Z" fill="black"/>
<path d="M29.7422 25.8867H34.6992V30.8438H29.7422V25.8867Z" fill="white"/>
<path d="M34.1484 25.8867H38.5547V30.8438H34.1484V25.8867Z" fill="black"/>
<path d="M38.5547 25.8867H43.5117V30.8438H38.5547V25.8867Z" fill="white"/>
<path d="M42.9609 25.8867H47.918V30.8438H42.9609V25.8867Z" fill="black"/>
<path d="M46.8164 25.8867H51.7734V30.8438H46.8164V25.8867Z" fill="white"/>
<path d="M51.2227 25.8867H55.6289V30.8438H51.2227V25.8867Z" fill="black"/>
<path d="M55.6289 25.8867H60.5859V30.8438H55.6289V25.8867Z" fill="white"/>
<path d="M60.0352 25.8867H64.9922V30.8438H60.0352V25.8867Z" fill="black"/>
<path d="M63.8906 25.8867H68.8477V30.8438H63.8906V25.8867Z" fill="white"/>
<path d="M68.2969 25.8867H72.7031V30.8438H68.2969V25.8867Z" fill="black"/>
<path d="M72.7031 25.8867H77.6602V30.8438H72.7031V25.8867Z" fill="white"/>
<path d="M77.1094 25.8867H82.0664V30.8438H77.1094V25.8867Z" fill="black"/>
<path d="M80.9648 25.8867H85.9219V30.8438H80.9648V25.8867Z" fill="white"/>
<path d="M85.3711 25.8867H89.7773V30.8438H85.3711V25.8867Z" fill="black"/>
<path d="M89.7773 25.8867H94.7344V30.8438H89.7773V25.8867Z" fill="white"/>
<path d="M94.1836 25.8867H99.1406V30.8438H94.1836V25.8867Z" fill="black"/>
<path d="M98.0391 25.8867H102.996V30.8438H98.0391V25.8867Z" fill="white"/>
<path d="M102.445 25.8867H106.852V30.8438H102.445V25.8867Z" fill="black"/>
<path d="M106.852 25.8867H111.809V30.8438H106.852V25.8867Z" fill="white"/>
<path d="M111.258 25.8867H116.215V30.8438H111.258V25.8867Z" fill="black"/>
<path d="M115.113 25.8867H120.07V30.8438H115.113V25.8867Z" fill="black"/>
<path d="M119.52 25.8867H123.926V30.8438H119.52V25.8867Z" fill="black"/>
<path d="M123.926 25.8867H128.883V30.8438H123.926V25.8867Z" fill="black"/>
<path d="M128.332 25.8867H133.289V30.8438H128.332V25.8867Z" fill="black"/>
<path d="M132.188 25.8867H137.145V30.8438H132.188V25.8867Z" fill="black"/>
<path d="M136.594 25.8867H141V30.8438H136.594V25.8867Z" fill="black"/>
<path d="M0 29.7422H4.40625V34.6992H0V29.7422Z" fill="white"/>
<path d="M4.40625 29.7422H9.36328V34.6992H4.40625V29.7422Z" fill="white"/>
<path d="M8.8125 29.7422H13.7695V34.6992H8.8125V29.7422Z" fill="white"/>
<path d="M12.668 29.7422H17.625V34.6992H12.668V29.7422Z" fill="white"/>
<path d="M17.0742 29.7422H21.4805V34.6992H17.0742V29.7422Z" fill="white"/>
<path d="M21.4805 29.7422H26.4375V34.6992H21.4805V29.7422Z" fill="white"/>
<path d="M25.8867 29.7422H30.8438V34.6992H25.8867V29.7422Z" fill="white"/>
<path d="M29.7422 29.7422H34.6992V34.6992H29.7422V29.7422Z" fill="white"/>
<path d="M34.1484 29.7422H38.5547V34.6992H34.1484V29.7422Z" fill="white"/>
<path d="M38.5547 29.7422H43.5117V34.6992H38.5547V29.7422Z" fill="black"/>
<path d="M42.9609 29.7422H47.918V34.6992H42.9609V29.7422Z" fill="black"/>
<path d="M46.8164 29.7422H51.7734V34.6992H46.8164V29.7422Z" fill="black"/>
<path d="M51.2227 29.7422H55.6289V34.6992H51.2227V29.7422Z" fill="white"/>
<path d="M55.6289 29.7422H60.5859V34.6992H55.6289V29.7422Z" fill="white"/>
<path d="M60.0352 29.7422H64.9922V34.6992H60.0352V29.7422Z" fill="black"/>
<path d="M63.8906 29.7422H68.8477V34.6992H63.8906V29.7422Z" fill="white"/>
<path d="M68.2969 29.7422H72.7031V34.6992H68.2969V29.7422Z" fill="black"/>
<path d="M72.7031 29.7422H77.6602V34.6992H72.7031V29.7422Z" fill="white"/>
<path d="M77.1094 29.7422H82.0664V34.6992H77.1094V29.7422Z" fill="black"/>
<path d="M80.9648 29.7422H85.9219V34.6992H80.9648V29.7422Z" fill="black"/>
<path d="M85.3711 29.7422H89.7773V34.6992H85.3711V29.7422Z" fill="white"/>
<path d="M89.7773 29.7422H94.7344V34.6992H89.7773V29.7422Z" fill="black"/>
<path d="M94.1836 29.7422H99.1406V34.6992H94.1836V29.7422Z" fill="white"/>
<path d="M98.0391 29.7422H102.996V34.6992H98.0391V29.7422Z" fill="black"/>
<path d="M102.445 29.7422H106.852V34.6992H102.445V29.7422Z" fill="white"/>
<path d="M106.852 29.7422H111.809V34.6992H106.852V29.7422Z" fill="white"/>
<path d="M111.258 29.7422H116.215V34.6992H111.258V29.7422Z" fill="white"/>
<path d="M115.113 29.7422H120.07V34.6992H115.113V29.7422Z" fill="white"/>
<path d="M119.52 29.7422H123.926V34.6992H119.52V29.7422Z" fill="white"/>
<path d="M123.926 29.7422H128.883V34.6992H123.926V29.7422Z" fill="white"/>
<path d="M128.332 29.7422H133.289V34.6992H128.332V29.7422Z" fill="white"/>
<path d="M132.188 29.7422H137.145V34.6992H132.188V29.7422Z" fill="white"/>
<path d="M136.594 29.7422H141V34.6992H136.594V29.7422Z" fill="white"/>
<path d="M0 34.1484H4.40625V38.5547H0V34.1484Z" fill="black"/>
<path d="M4.40625 34.1484H9.36328V38.5547H4.40625V34.1484Z" fill="black"/>
<path d="M8.8125 34.1484H13.7695V38.5547H8.8125V34.1484Z" fill="black"/>
<path d="M12.668 34.1484H17.625V38.5547H12.668V34.1484Z" fill="black"/>
<path d="M17.0742 34.1484H21.4805V38.5547H17.0742V34.1484Z" fill="black"/>
<path d="M21.4805 34.1484H26.4375V38.5547H21.4805V34.1484Z" fill="white"/>
<path d="M25.8867 34.1484H30.8438V38.5547H25.8867V34.1484Z" fill="black"/>
<path d="M29.7422 34.1484H34.6992V38.5547H29.7422V34.1484Z" fill="black"/>
<path d="M34.1484 34.1484H38.5547V38.5547H34.1484V34.1484Z" fill="black"/>
<path d="M38.5547 34.1484H43.5117V38.5547H38.5547V34.1484Z" fill="black"/>
<path d="M42.9609 34.1484H47.918V38.5547H42.9609V34.1484Z" fill="white"/>
<path d="M46.8164 34.1484H51.7734V38.5547H46.8164V34.1484Z" fill="black"/>
<path d="M51.2227 34.1484H55.6289V38.5547H51.2227V34.1484Z" fill="white"/>
<path d="M55.6289 34.1484H60.5859V38.5547H55.6289V34.1484Z" fill="white"/>
<path d="M60.0352 34.1484H64.9922V38.5547H60.0352V34.1484Z" fill="white"/>
<path d="M63.8906 34.1484H68.8477V38.5547H63.8906V34.1484Z" fill="white"/>
<path d="M68.2969 34.1484H72.7031V38.5547H68.2969V34.1484Z" fill="black"/>
<path d="M72.7031 34.1484H77.6602V38.5547H72.7031V34.1484Z" fill="black"/>
<path d="M77.1094 34.1484H82.0664V38.5547H77.1094V34.1484Z" fill="white"/>
<path d="M80.9648 34.1484H85.9219V38.5547H80.9648V34.1484Z" fill="white"/>
<path d="M85.3711 34.1484H89.7773V38.5547H85.3711V34.1484Z" fill="black"/>
<path d="M89.7773 34.1484H94.7344V38.5547H89.7773V34.1484Z" fill="white"/>
<path d="M94.1836 34.1484H99.1406V38.5547H94.1836V34.1484Z" fill="white"/>
<path d="M98.0391 34.1484H102.996V38.5547H98.0391V34.1484Z" fill="black"/>
<path d="M102.445 34.1484H106.852V38.5547H102.445V34.1484Z" fill="black"/>
<path d="M106.852 34.1484H111.809V38.5547H106.852V34.1484Z" fill="black"/>
<path d="M111.258 34.1484H116.215V38.5547H111.258V34.1484Z" fill="white"/>
<path d="M115.113 34.1484H120.07V38.5547H115.113V34.1484Z" fill="black"/>
<path d="M119.52 34.1484H123.926V38.5547H119.52V34.1484Z" fill="white"/>
<path d="M123.926 34.1484H128.883V38.5547H123.926V34.1484Z" fill="black"/>
<path d="M128.332 34.1484H133.289V38.5547H128.332V34.1484Z" fill="white"/>
<path d="M132.188 34.1484H137.145V38.5547H132.188V34.1484Z" fill="black"/>
<path d="M136.594 34.1484H141V38.5547H136.594V34.1484Z" fill="white"/>
<path d="M0 38.5547H4.40625V43.5117H0V38.5547Z" fill="white"/>
<path d="M4.40625 38.5547H9.36328V43.5117H4.40625V38.5547Z" fill="white"/>
<path d="M8.8125 38.5547H13.7695V43.5117H8.8125V38.5547Z" fill="white"/>
<path d="M12.668 38.5547H17.625V43.5117H12.668V38.5547Z" fill="black"/>
<path d="M17.0742 38.5547H21.4805V43.5117H17.0742V38.5547Z" fill="white"/>
<path d="M21.4805 38.5547H26.4375V43.5117H21.4805V38.5547Z" fill="white"/>
<path d="M25.8867 38.5547H30.8438V43.5117H25.8867V38.5547Z" fill="white"/>
<path d="M29.7422 38.5547H34.6992V43.5117H29.7422V38.5547Z" fill="black"/>
<path d="M34.1484 38.5547H38.5547V43.5117H34.1484V38.5547Z" fill="white"/>
<path d="M38.5547 38.5547H43.5117V43.5117H38.5547V38.5547Z" fill="white"/>
<path d="M42.9609 38.5547H47.918V43.5117H42.9609V38.5547Z" fill="black"/>
<path d="M46.8164 38.5547H51.7734V43.5117H46.8164V38.5547Z" fill="white"/>
<path d="M51.2227 38.5547H55.6289V43.5117H51.2227V38.5547Z" fill="black"/>
<path d="M55.6289 38.5547H60.5859V43.5117H55.6289V38.5547Z" fill="black"/>
<path d="M60.0352 38.5547H64.9922V43.5117H60.0352V38.5547Z" fill="black"/>
<path d="M63.8906 38.5547H68.8477V43.5117H63.8906V38.5547Z" fill="black"/>
<path d="M68.2969 38.5547H72.7031V43.5117H68.2969V38.5547Z" fill="white"/>
<path d="M72.7031 38.5547H77.6602V43.5117H72.7031V38.5547Z" fill="white"/>
<path d="M77.1094 38.5547H82.0664V43.5117H77.1094V38.5547Z" fill="black"/>
<path d="M80.9648 38.5547H85.9219V43.5117H80.9648V38.5547Z" fill="white"/>
<path d="M85.3711 38.5547H89.7773V43.5117H85.3711V38.5547Z" fill="black"/>
<path d="M89.7773 38.5547H94.7344V43.5117H89.7773V38.5547Z" fill="white"/>
<path d="M94.1836 38.5547H99.1406V43.5117H94.1836V38.5547Z" fill="white"/>
<path d="M98.0391 38.5547H102.996V43.5117H98.0391V38.5547Z" fill="black"/>
<path d="M102.445 38.5547H106.852V43.5117H102.445V38.5547Z" fill="black"/>
<path d="M106.852 38.5547H111.809V43.5117H106.852V38.5547Z" fill="white"/>
<path d="M111.258 38.5547H116.215V43.5117H111.258V38.5547Z" fill="black"/>
<path d="M115.113 38.5547H120.07V43.5117H115.113V38.5547Z" fill="white"/>
<path d="M119.52 38.5547H123.926V43.5117H119.52V38.5547Z" fill="white"/>
<path d="M123.926 38.5547H128.883V43.5117H123.926V38.5547Z" fill="white"/>
<path d="M128.332 38.5547H133.289V43.5117H128.332V38.5547Z" fill="black"/>
<path d="M132.188 38.5547H137.145V43.5117H132.188V38.5547Z" fill="black"/>
<path d="M136.594 38.5547H141V43.5117H136.594V38.5547Z" fill="black"/>
<path d="M0 42.9609H4.40625V47.918H0V42.9609Z" fill="white"/>
<path d="M4.40625 42.9609H9.36328V47.918H4.40625V42.9609Z" fill="black"/>
<path d="M8.8125 42.9609H13.7695V47.918H8.8125V42.9609Z" fill="black"/>
<path d="M12.668 42.9609H17.625V47.918H12.668V42.9609Z" fill="black"/>
<path d="M17.0742 42.9609H21.4805V47.918H17.0742V42.9609Z" fill="white"/>
<path d="M21.4805 42.9609H26.4375V47.918H21.4805V42.9609Z" fill="black"/>
<path d="M25.8867 42.9609H30.8438V47.918H25.8867V42.9609Z" fill="black"/>
<path d="M29.7422 42.9609H34.6992V47.918H29.7422V42.9609Z" fill="black"/>
<path d="M34.1484 42.9609H38.5547V47.918H34.1484V42.9609Z" fill="white"/>
<path d="M38.5547 42.9609H43.5117V47.918H38.5547V42.9609Z" fill="white"/>
<path d="M42.9609 42.9609H47.918V47.918H42.9609V42.9609Z" fill="black"/>
<path d="M46.8164 42.9609H51.7734V47.918H46.8164V42.9609Z" fill="white"/>
<path d="M51.2227 42.9609H55.6289V47.918H51.2227V42.9609Z" fill="white"/>
<path d="M55.6289 42.9609H60.5859V47.918H55.6289V42.9609Z" fill="black"/>
<path d="M60.0352 42.9609H64.9922V47.918H60.0352V42.9609Z" fill="black"/>
<path d="M63.8906 42.9609H68.8477V47.918H63.8906V42.9609Z" fill="black"/>
<path d="M68.2969 42.9609H72.7031V47.918H68.2969V42.9609Z" fill="black"/>
<path d="M72.7031 42.9609H77.6602V47.918H72.7031V42.9609Z" fill="white"/>
<path d="M77.1094 42.9609H82.0664V47.918H77.1094V42.9609Z" fill="white"/>
<path d="M80.9648 42.9609H85.9219V47.918H80.9648V42.9609Z" fill="white"/>
<path d="M85.3711 42.9609H89.7773V47.918H85.3711V42.9609Z" fill="white"/>
<path d="M89.7773 42.9609H94.7344V47.918H89.7773V42.9609Z" fill="white"/>
<path d="M94.1836 42.9609H99.1406V47.918H94.1836V42.9609Z" fill="black"/>
<path d="M98.0391 42.9609H102.996V47.918H98.0391V42.9609Z" fill="white"/>
<path d="M102.445 42.9609H106.852V47.918H102.445V42.9609Z" fill="black"/>
<path d="M106.852 42.9609H111.809V47.918H106.852V42.9609Z" fill="black"/>
<path d="M111.258 42.9609H116.215V47.918H111.258V42.9609Z" fill="black"/>
<path d="M115.113 42.9609H120.07V47.918H115.113V42.9609Z" fill="black"/>
<path d="M119.52 42.9609H123.926V47.918H119.52V42.9609Z" fill="white"/>
<path d="M123.926 42.9609H128.883V47.918H123.926V42.9609Z" fill="black"/>
<path d="M128.332 42.9609H133.289V47.918H128.332V42.9609Z" fill="white"/>
<path d="M132.188 42.9609H137.145V47.918H132.188V42.9609Z" fill="black"/>
<path d="M136.594 42.9609H141V47.918H136.594V42.9609Z" fill="white"/>
<path d="M0 46.8164H4.40625V51.7734H0V46.8164Z" fill="white"/>
<path d="M4.40625 46.8164H9.36328V51.7734H4.40625V46.8164Z" fill="white"/>
<path d="M8.8125 46.8164H13.7695V51.7734H8.8125V46.8164Z" fill="black"/>
<path d="M12.668 46.8164H17.625V51.7734H12.668V46.8164Z" fill="black"/>
<path d="M17.0742 46.8164H21.4805V51.7734H17.0742V46.8164Z" fill="black"/>
<path d="M21.4805 46.8164H26.4375V51.7734H21.4805V46.8164Z" fill="black"/>
<path d="M25.8867 46.8164H30.8438V51.7734H25.8867V46.8164Z" fill="white"/>
<path d="M29.7422 46.8164H34.6992V51.7734H29.7422V46.8164Z" fill="black"/>
<path d="M34.1484 46.8164H38.5547V51.7734H34.1484V46.8164Z" fill="black"/>
<path d="M38.5547 46.8164H43.5117V51.7734H38.5547V46.8164Z" fill="white"/>
<path d="M42.9609 46.8164H47.918V51.7734H42.9609V46.8164Z" fill="white"/>
<path d="M46.8164 46.8164H51.7734V51.7734H46.8164V46.8164Z" fill="white"/>
<path d="M51.2227 46.8164H55.6289V51.7734H51.2227V46.8164Z" fill="black"/>
<path d="M55.6289 46.8164H60.5859V51.7734H55.6289V46.8164Z" fill="black"/>
<path d="M60.0352 46.8164H64.9922V51.7734H60.0352V46.8164Z" fill="white"/>
<path d="M63.8906 46.8164H68.8477V51.7734H63.8906V46.8164Z" fill="black"/>
<path d="M68.2969 46.8164H72.7031V51.7734H68.2969V46.8164Z" fill="white"/>
<path d="M72.7031 46.8164H77.6602V51.7734H72.7031V46.8164Z" fill="white"/>
<path d="M77.1094 46.8164H82.0664V51.7734H77.1094V46.8164Z" fill="black"/>
<path d="M80.9648 46.8164H85.9219V51.7734H80.9648V46.8164Z" fill="white"/>
<path d="M85.3711 46.8164H89.7773V51.7734H85.3711V46.8164Z" fill="black"/>
<path d="M89.7773 46.8164H94.7344V51.7734H89.7773V46.8164Z" fill="black"/>
<path d="M94.1836 46.8164H99.1406V51.7734H94.1836V46.8164Z" fill="black"/>
<path d="M98.0391 46.8164H102.996V51.7734H98.0391V46.8164Z" fill="white"/>
<path d="M102.445 46.8164H106.852V51.7734H102.445V46.8164Z" fill="white"/>
<path d="M106.852 46.8164H111.809V51.7734H106.852V46.8164Z" fill="black"/>
<path d="M111.258 46.8164H116.215V51.7734H111.258V46.8164Z" fill="black"/>
<path d="M115.113 46.8164H120.07V51.7734H115.113V46.8164Z" fill="black"/>
<path d="M119.52 46.8164H123.926V51.7734H119.52V46.8164Z" fill="white"/>
<path d="M123.926 46.8164H128.883V51.7734H123.926V46.8164Z" fill="white"/>
<path d="M128.332 46.8164H133.289V51.7734H128.332V46.8164Z" fill="black"/>
<path d="M132.188 46.8164H137.145V51.7734H132.188V46.8164Z" fill="white"/>
<path d="M136.594 46.8164H141V51.7734H136.594V46.8164Z" fill="white"/>
<path d="M0 51.2227H4.40625V55.6289H0V51.2227Z" fill="white"/>
<path d="M4.40625 51.2227H9.36328V55.6289H4.40625V51.2227Z" fill="white"/>
<path d="M8.8125 51.2227H13.7695V55.6289H8.8125V51.2227Z" fill="white"/>
<path d="M12.668 51.2227H17.625V55.6289H12.668V51.2227Z" fill="white"/>
<path d="M17.0742 51.2227H21.4805V55.6289H17.0742V51.2227Z" fill="white"/>
<path d="M21.4805 51.2227H26.4375V55.6289H21.4805V51.2227Z" fill="black"/>
<path d="M25.8867 51.2227H30.8438V55.6289H25.8867V51.2227Z" fill="black"/>
<path d="M29.7422 51.2227H34.6992V55.6289H29.7422V51.2227Z" fill="black"/>
<path d="M34.1484 51.2227H38.5547V55.6289H34.1484V51.2227Z" fill="white"/>
<path d="M38.5547 51.2227H43.5117V55.6289H38.5547V51.2227Z" fill="black"/>
<path d="M42.9609 51.2227H47.918V55.6289H42.9609V51.2227Z" fill="black"/>
<path d="M46.8164 51.2227H51.7734V55.6289H46.8164V51.2227Z" fill="white"/>
<path d="M51.2227 51.2227H55.6289V55.6289H51.2227V51.2227Z" fill="black"/>
<path d="M55.6289 51.2227H60.5859V55.6289H55.6289V51.2227Z" fill="white"/>
<path d="M60.0352 51.2227H64.9922V55.6289H60.0352V51.2227Z" fill="black"/>
<path d="M63.8906 51.2227H68.8477V55.6289H63.8906V51.2227Z" fill="black"/>
<path d="M68.2969 51.2227H72.7031V55.6289H68.2969V51.2227Z" fill="white"/>
<path d="M72.7031 51.2227H77.6602V55.6289H72.7031V51.2227Z" fill="white"/>
<path d="M77.1094 51.2227H82.0664V55.6289H77.1094V51.2227Z" fill="white"/>
<path d="M80.9648 51.2227H85.9219V55.6289H80.9648V51.2227Z" fill="black"/>
<path d="M85.3711 51.2227H89.7773V55.6289H85.3711V51.2227Z" fill="white"/>
<path d="M89.7773 51.2227H94.7344V55.6289H89.7773V51.2227Z" fill="white"/>
<path d="M94.1836 51.2227H99.1406V55.6289H94.1836V51.2227Z" fill="black"/>
<path d="M98.0391 51.2227H102.996V55.6289H98.0391V51.2227Z" fill="black"/>
<path d="M102.445 51.2227H106.852V55.6289H102.445V51.2227Z" fill="black"/>
<path d="M106.852 51.2227H111.809V55.6289H106.852V51.2227Z" fill="black"/>
<path d="M111.258 51.2227H116.215V55.6289H111.258V51.2227Z" fill="white"/>
<path d="M115.113 51.2227H120.07V55.6289H115.113V51.2227Z" fill="white"/>
<path d="M119.52 51.2227H123.926V55.6289H119.52V51.2227Z" fill="black"/>
<path d="M123.926 51.2227H128.883V55.6289H123.926V51.2227Z" fill="black"/>
<path d="M128.332 51.2227H133.289V55.6289H128.332V51.2227Z" fill="white"/>
<path d="M132.188 51.2227H137.145V55.6289H132.188V51.2227Z" fill="white"/>
<path d="M136.594 51.2227H141V55.6289H136.594V51.2227Z" fill="white"/>
<path d="M0 55.6289H4.40625V60.5859H0V55.6289Z" fill="black"/>
<path d="M4.40625 55.6289H9.36328V60.5859H4.40625V55.6289Z" fill="white"/>
<path d="M8.8125 55.6289H13.7695V60.5859H8.8125V55.6289Z" fill="black"/>
<path d="M12.668 55.6289H17.625V60.5859H12.668V55.6289Z" fill="white"/>
<path d="M17.0742 55.6289H21.4805V60.5859H17.0742V55.6289Z" fill="black"/>
<path d="M21.4805 55.6289H26.4375V60.5859H21.4805V55.6289Z" fill="white"/>
<path d="M25.8867 55.6289H30.8438V60.5859H25.8867V55.6289Z" fill="white"/>
<path d="M29.7422 55.6289H34.6992V60.5859H29.7422V55.6289Z" fill="black"/>
<path d="M34.1484 55.6289H38.5547V60.5859H34.1484V55.6289Z" fill="white"/>
<path d="M38.5547 55.6289H43.5117V60.5859H38.5547V55.6289Z" fill="black"/>
<path d="M42.9609 55.6289H47.918V60.5859H42.9609V55.6289Z" fill="white"/>
<path d="M46.8164 55.6289H51.7734V60.5859H46.8164V55.6289Z" fill="white"/>
<path d="M51.2227 55.6289H55.6289V60.5859H51.2227V55.6289Z" fill="white"/>
<path d="M55.6289 55.6289H60.5859V60.5859H55.6289V55.6289Z" fill="white"/>
<path d="M60.0352 55.6289H64.9922V60.5859H60.0352V55.6289Z" fill="white"/>
<path d="M63.8906 55.6289H68.8477V60.5859H63.8906V55.6289Z" fill="black"/>
<path d="M68.2969 55.6289H72.7031V60.5859H68.2969V55.6289Z" fill="black"/>
<path d="M72.7031 55.6289H77.6602V60.5859H72.7031V55.6289Z" fill="white"/>
<path d="M77.1094 55.6289H82.0664V60.5859H77.1094V55.6289Z" fill="white"/>
<path d="M80.9648 55.6289H85.9219V60.5859H80.9648V55.6289Z" fill="black"/>
<path d="M85.3711 55.6289H89.7773V60.5859H85.3711V55.6289Z" fill="black"/>
<path d="M89.7773 55.6289H94.7344V60.5859H89.7773V55.6289Z" fill="black"/>
<path d="M94.1836 55.6289H99.1406V60.5859H94.1836V55.6289Z" fill="black"/>
<path d="M98.0391 55.6289H102.996V60.5859H98.0391V55.6289Z" fill="black"/>
<path d="M102.445 55.6289H106.852V60.5859H102.445V55.6289Z" fill="white"/>
<path d="M106.852 55.6289H111.809V60.5859H106.852V55.6289Z" fill="white"/>
<path d="M111.258 55.6289H116.215V60.5859H111.258V55.6289Z" fill="black"/>
<path d="M115.113 55.6289H120.07V60.5859H115.113V55.6289Z" fill="white"/>
<path d="M119.52 55.6289H123.926V60.5859H119.52V55.6289Z" fill="white"/>
<path d="M123.926 55.6289H128.883V60.5859H123.926V55.6289Z" fill="white"/>
<path d="M128.332 55.6289H133.289V60.5859H128.332V55.6289Z" fill="white"/>
<path d="M132.188 55.6289H137.145V60.5859H132.188V55.6289Z" fill="black"/>
<path d="M136.594 55.6289H141V60.5859H136.594V55.6289Z" fill="black"/>
<path d="M0 60.0352H4.40625V64.9922H0V60.0352Z" fill="black"/>
<path d="M4.40625 60.0352H9.36328V64.9922H4.40625V60.0352Z" fill="black"/>
<path d="M8.8125 60.0352H13.7695V64.9922H8.8125V60.0352Z" fill="white"/>
<path d="M12.668 60.0352H17.625V64.9922H12.668V60.0352Z" fill="white"/>
<path d="M17.0742 60.0352H21.4805V64.9922H17.0742V60.0352Z" fill="black"/>
<path d="M21.4805 60.0352H26.4375V64.9922H21.4805V60.0352Z" fill="black"/>
<path d="M25.8867 60.0352H30.8438V64.9922H25.8867V60.0352Z" fill="black"/>
<path d="M29.7422 60.0352H34.6992V64.9922H29.7422V60.0352Z" fill="black"/>
<path d="M34.1484 60.0352H38.5547V64.9922H34.1484V60.0352Z" fill="black"/>
<path d="M38.5547 60.0352H43.5117V64.9922H38.5547V60.0352Z" fill="black"/>
<path d="M42.9609 60.0352H47.918V64.9922H42.9609V60.0352Z" fill="black"/>
<path d="M46.8164 60.0352H51.7734V64.9922H46.8164V60.0352Z" fill="black"/>
<path d="M51.2227 60.0352H55.6289V64.9922H51.2227V60.0352Z" fill="black"/>
<path d="M55.6289 60.0352H60.5859V64.9922H55.6289V60.0352Z" fill="white"/>
<path d="M60.0352 60.0352H64.9922V64.9922H60.0352V60.0352Z" fill="white"/>
<path d="M63.8906 60.0352H68.8477V64.9922H63.8906V60.0352Z" fill="white"/>
<path d="M68.2969 60.0352H72.7031V64.9922H68.2969V60.0352Z" fill="white"/>
<path d="M72.7031 60.0352H77.6602V64.9922H72.7031V60.0352Z" fill="black"/>
<path d="M77.1094 60.0352H82.0664V64.9922H77.1094V60.0352Z" fill="white"/>
<path d="M80.9648 60.0352H85.9219V64.9922H80.9648V60.0352Z" fill="white"/>
<path d="M85.3711 60.0352H89.7773V64.9922H85.3711V60.0352Z" fill="white"/>
<path d="M89.7773 60.0352H94.7344V64.9922H89.7773V60.0352Z" fill="black"/>
<path d="M94.1836 60.0352H99.1406V64.9922H94.1836V60.0352Z" fill="white"/>
<path d="M98.0391 60.0352H102.996V64.9922H98.0391V60.0352Z" fill="white"/>
<path d="M102.445 60.0352H106.852V64.9922H102.445V60.0352Z" fill="white"/>
<path d="M106.852 60.0352H111.809V64.9922H106.852V60.0352Z" fill="black"/>
<path d="M111.258 60.0352H116.215V64.9922H111.258V60.0352Z" fill="black"/>
<path d="M115.113 60.0352H120.07V64.9922H115.113V60.0352Z" fill="white"/>
<path d="M119.52 60.0352H123.926V64.9922H119.52V60.0352Z" fill="white"/>
<path d="M123.926 60.0352H128.883V64.9922H123.926V60.0352Z" fill="white"/>
<path d="M128.332 60.0352H133.289V64.9922H128.332V60.0352Z" fill="white"/>
<path d="M132.188 60.0352H137.145V64.9922H132.188V60.0352Z" fill="black"/>
<path d="M136.594 60.0352H141V64.9922H136.594V60.0352Z" fill="white"/>
<path d="M0 63.8906H4.40625V68.8477H0V63.8906Z" fill="white"/>
<path d="M4.40625 63.8906H9.36328V68.8477H4.40625V63.8906Z" fill="black"/>
<path d="M8.8125 63.8906H13.7695V68.8477H8.8125V63.8906Z" fill="white"/>
<path d="M12.668 63.8906H17.625V68.8477H12.668V63.8906Z" fill="black"/>
<path d="M17.0742 63.8906H21.4805V68.8477H17.0742V63.8906Z" fill="white"/>
<path d="M21.4805 63.8906H26.4375V68.8477H21.4805V63.8906Z" fill="white"/>
<path d="M25.8867 63.8906H30.8438V68.8477H25.8867V63.8906Z" fill="white"/>
<path d="M29.7422 63.8906H34.6992V68.8477H29.7422V63.8906Z" fill="black"/>
<path d="M34.1484 63.8906H38.5547V68.8477H34.1484V63.8906Z" fill="white"/>
<path d="M38.5547 63.8906H43.5117V68.8477H38.5547V63.8906Z" fill="white"/>
<path d="M42.9609 63.8906H47.918V68.8477H42.9609V63.8906Z" fill="black"/>
<path d="M46.8164 63.8906H51.7734V68.8477H46.8164V63.8906Z" fill="black"/>
<path d="M51.2227 63.8906H55.6289V68.8477H51.2227V63.8906Z" fill="white"/>
<path d="M55.6289 63.8906H60.5859V68.8477H55.6289V63.8906Z" fill="white"/>
<path d="M60.0352 63.8906H64.9922V68.8477H60.0352V63.8906Z" fill="black"/>
<path d="M63.8906 63.8906H68.8477V68.8477H63.8906V63.8906Z" fill="white"/>
<path d="M68.2969 63.8906H72.7031V68.8477H68.2969V63.8906Z" fill="black"/>
<path d="M72.7031 63.8906H77.6602V68.8477H72.7031V63.8906Z" fill="white"/>
<path d="M77.1094 63.8906H82.0664V68.8477H77.1094V63.8906Z" fill="white"/>
<path d="M80.9648 63.8906H85.9219V68.8477H80.9648V63.8906Z" fill="white"/>
<path d="M85.3711 63.8906H89.7773V68.8477H85.3711V63.8906Z" fill="black"/>
<path d="M89.7773 63.8906H94.7344V68.8477H89.7773V63.8906Z" fill="black"/>
<path d="M94.1836 63.8906H99.1406V68.8477H94.1836V63.8906Z" fill="white"/>
<path d="M98.0391 63.8906H102.996V68.8477H98.0391V63.8906Z" fill="white"/>
<path d="M102.445 63.8906H106.852V68.8477H102.445V63.8906Z" fill="white"/>
<path d="M106.852 63.8906H111.809V68.8477H106.852V63.8906Z" fill="white"/>
<path d="M111.258 63.8906H116.215V68.8477H111.258V63.8906Z" fill="white"/>
<path d="M115.113 63.8906H120.07V68.8477H115.113V63.8906Z" fill="white"/>
<path d="M119.52 63.8906H123.926V68.8477H119.52V63.8906Z" fill="black"/>
<path d="M123.926 63.8906H128.883V68.8477H123.926V63.8906Z" fill="white"/>
<path d="M128.332 63.8906H133.289V68.8477H128.332V63.8906Z" fill="black"/>
<path d="M132.188 63.8906H137.145V68.8477H132.188V63.8906Z" fill="white"/>
<path d="M136.594 63.8906H141V68.8477H136.594V63.8906Z" fill="white"/>
<path d="M0 68.2969H4.40625V72.7031H0V68.2969Z" fill="white"/>
<path d="M4.40625 68.2969H9.36328V72.7031H4.40625V68.2969Z" fill="white"/>
<path d="M8.8125 68.2969H13.7695V72.7031H8.8125V68.2969Z" fill="white"/>
<path d="M12.668 68.2969H17.625V72.7031H12.668V68.2969Z" fill="white"/>
<path d="M17.0742 68.2969H21.4805V72.7031H17.0742V68.2969Z" fill="black"/>
<path d="M21.4805 68.2969H26.4375V72.7031H21.4805V68.2969Z" fill="white"/>
<path d="M25.8867 68.2969H30.8438V72.7031H25.8867V68.2969Z" fill="black"/>
<path d="M29.7422 68.2969H34.6992V72.7031H29.7422V68.2969Z" fill="white"/>
<path d="M34.1484 68.2969H38.5547V72.7031H34.1484V68.2969Z" fill="black"/>
<path d="M38.5547 68.2969H43.5117V72.7031H38.5547V68.2969Z" fill="black"/>
<path d="M42.9609 68.2969H47.918V72.7031H42.9609V68.2969Z" fill="white"/>
<path d="M46.8164 68.2969H51.7734V72.7031H46.8164V68.2969Z" fill="black"/>
<path d="M51.2227 68.2969H55.6289V72.7031H51.2227V68.2969Z" fill="white"/>
<path d="M55.6289 68.2969H60.5859V72.7031H55.6289V68.2969Z" fill="white"/>
<path d="M60.0352 68.2969H64.9922V72.7031H60.0352V68.2969Z" fill="white"/>
<path d="M63.8906 68.2969H68.8477V72.7031H63.8906V68.2969Z" fill="white"/>
<path d="M68.2969 68.2969H72.7031V72.7031H68.2969V68.2969Z" fill="white"/>
<path d="M72.7031 68.2969H77.6602V72.7031H72.7031V68.2969Z" fill="black"/>
<path d="M77.1094 68.2969H82.0664V72.7031H77.1094V68.2969Z" fill="white"/>
<path d="M80.9648 68.2969H85.9219V72.7031H80.9648V68.2969Z" fill="black"/>
<path d="M85.3711 68.2969H89.7773V72.7031H85.3711V68.2969Z" fill="white"/>
<path d="M89.7773 68.2969H94.7344V72.7031H89.7773V68.2969Z" fill="white"/>
<path d="M94.1836 68.2969H99.1406V72.7031H94.1836V68.2969Z" fill="black"/>
<path d="M98.0391 68.2969H102.996V72.7031H98.0391V68.2969Z" fill="white"/>
<path d="M102.445 68.2969H106.852V72.7031H102.445V68.2969Z" fill="black"/>
<path d="M106.852 68.2969H111.809V72.7031H106.852V68.2969Z" fill="black"/>
<path d="M111.258 68.2969H116.215V72.7031H111.258V68.2969Z" fill="white"/>
<path d="M115.113 68.2969H120.07V72.7031H115.113V68.2969Z" fill="black"/>
<path d="M119.52 68.2969H123.926V72.7031H119.52V68.2969Z" fill="black"/>
<path d="M123.926 68.2969H128.883V72.7031H123.926V68.2969Z" fill="white"/>
<path d="M128.332 68.2969H133.289V72.7031H128.332V68.2969Z" fill="white"/>
<path d="M132.188 68.2969H137.145V72.7031H132.188V68.2969Z" fill="black"/>
<path d="M136.594 68.2969H141V72.7031H136.594V68.2969Z" fill="white"/>
<path d="M0 72.7031H4.40625V77.6602H0V72.7031Z" fill="white"/>
<path d="M4.40625 72.7031H9.36328V77.6602H4.40625V72.7031Z" fill="white"/>
<path d="M8.8125 72.7031H13.7695V77.6602H8.8125V72.7031Z" fill="black"/>
<path d="M12.668 72.7031H17.625V77.6602H12.668V72.7031Z" fill="white"/>
<path d="M17.0742 72.7031H21.4805V77.6602H17.0742V72.7031Z" fill="black"/>
<path d="M21.4805 72.7031H26.4375V77.6602H21.4805V72.7031Z" fill="white"/>
<path d="M25.8867 72.7031H30.8438V77.6602H25.8867V72.7031Z" fill="white"/>
<path d="M29.7422 72.7031H34.6992V77.6602H29.7422V72.7031Z" fill="white"/>
<path d="M34.1484 72.7031H38.5547V77.6602H34.1484V72.7031Z" fill="white"/>
<path d="M38.5547 72.7031H43.5117V77.6602H38.5547V72.7031Z" fill="black"/>
<path d="M42.9609 72.7031H47.918V77.6602H42.9609V72.7031Z" fill="white"/>
<path d="M46.8164 72.7031H51.7734V77.6602H46.8164V72.7031Z" fill="white"/>
<path d="M51.2227 72.7031H55.6289V77.6602H51.2227V72.7031Z" fill="black"/>
<path d="M55.6289 72.7031H60.5859V77.6602H55.6289V72.7031Z" fill="black"/>
<path d="M60.0352 72.7031H64.9922V77.6602H60.0352V72.7031Z" fill="black"/>
<path d="M63.8906 72.7031H68.8477V77.6602H63.8906V72.7031Z" fill="black"/>
<path d="M68.2969 72.7031H72.7031V77.6602H68.2969V72.7031Z" fill="white"/>
<path d="M72.7031 72.7031H77.6602V77.6602H72.7031V72.7031Z" fill="black"/>
<path d="M77.1094 72.7031H82.0664V77.6602H77.1094V72.7031Z" fill="black"/>
<path d="M80.9648 72.7031H85.9219V77.6602H80.9648V72.7031Z" fill="black"/>
<path d="M85.3711 72.7031H89.7773V77.6602H85.3711V72.7031Z" fill="black"/>
<path d="M89.7773 72.7031H94.7344V77.6602H89.7773V72.7031Z" fill="white"/>
<path d="M94.1836 72.7031H99.1406V77.6602H94.1836V72.7031Z" fill="white"/>
<path d="M98.0391 72.7031H102.996V77.6602H98.0391V72.7031Z" fill="black"/>
<path d="M102.445 72.7031H106.852V77.6602H102.445V72.7031Z" fill="white"/>
<path d="M106.852 72.7031H111.809V77.6602H106.852V72.7031Z" fill="white"/>
<path d="M111.258 72.7031H116.215V77.6602H111.258V72.7031Z" fill="black"/>
<path d="M115.113 72.7031H120.07V77.6602H115.113V72.7031Z" fill="black"/>
<path d="M119.52 72.7031H123.926V77.6602H119.52V72.7031Z" fill="white"/>
<path d="M123.926 72.7031H128.883V77.6602H123.926V72.7031Z" fill="black"/>
<path d="M128.332 72.7031H133.289V77.6602H128.332V72.7031Z" fill="white"/>
<path d="M132.188 72.7031H137.145V77.6602H132.188V72.7031Z" fill="black"/>
<path d="M136.594 72.7031H141V77.6602H136.594V72.7031Z" fill="black"/>
<path d="M0 77.1094H4.40625V82.0664H0V77.1094Z" fill="black"/>
<path d="M4.40625 77.1094H9.36328V82.0664H4.40625V77.1094Z" fill="black"/>
<path d="M8.8125 77.1094H13.7695V82.0664H8.8125V77.1094Z" fill="white"/>
<path d="M12.668 77.1094H17.625V82.0664H12.668V77.1094Z" fill="black"/>
<path d="M17.0742 77.1094H21.4805V82.0664H17.0742V77.1094Z" fill="black"/>
<path d="M21.4805 77.1094H26.4375V82.0664H21.4805V77.1094Z" fill="black"/>
<path d="M25.8867 77.1094H30.8438V82.0664H25.8867V77.1094Z" fill="black"/>
<path d="M29.7422 77.1094H34.6992V82.0664H29.7422V77.1094Z" fill="black"/>
<path d="M34.1484 77.1094H38.5547V82.0664H34.1484V77.1094Z" fill="white"/>
<path d="M38.5547 77.1094H43.5117V82.0664H38.5547V77.1094Z" fill="white"/>
<path d="M42.9609 77.1094H47.918V82.0664H42.9609V77.1094Z" fill="black"/>
<path d="M46.8164 77.1094H51.7734V82.0664H46.8164V77.1094Z" fill="white"/>
<path d="M51.2227 77.1094H55.6289V82.0664H51.2227V77.1094Z" fill="white"/>
<path d="M55.6289 77.1094H60.5859V82.0664H55.6289V77.1094Z" fill="black"/>
<path d="M60.0352 77.1094H64.9922V82.0664H60.0352V77.1094Z" fill="black"/>
<path d="M63.8906 77.1094H68.8477V82.0664H63.8906V77.1094Z" fill="black"/>
<path d="M68.2969 77.1094H72.7031V82.0664H68.2969V77.1094Z" fill="white"/>
<path d="M72.7031 77.1094H77.6602V82.0664H72.7031V77.1094Z" fill="white"/>
<path d="M77.1094 77.1094H82.0664V82.0664H77.1094V77.1094Z" fill="white"/>
<path d="M80.9648 77.1094H85.9219V82.0664H80.9648V77.1094Z" fill="white"/>
<path d="M85.3711 77.1094H89.7773V82.0664H85.3711V77.1094Z" fill="white"/>
<path d="M89.7773 77.1094H94.7344V82.0664H89.7773V77.1094Z" fill="white"/>
<path d="M94.1836 77.1094H99.1406V82.0664H94.1836V77.1094Z" fill="black"/>
<path d="M98.0391 77.1094H102.996V82.0664H98.0391V77.1094Z" fill="white"/>
<path d="M102.445 77.1094H106.852V82.0664H102.445V77.1094Z" fill="white"/>
<path d="M106.852 77.1094H111.809V82.0664H106.852V77.1094Z" fill="black"/>
<path d="M111.258 77.1094H116.215V82.0664H111.258V77.1094Z" fill="black"/>
<path d="M115.113 77.1094H120.07V82.0664H115.113V77.1094Z" fill="black"/>
<path d="M119.52 77.1094H123.926V82.0664H119.52V77.1094Z" fill="white"/>
<path d="M123.926 77.1094H128.883V82.0664H123.926V77.1094Z" fill="black"/>
<path d="M128.332 77.1094H133.289V82.0664H128.332V77.1094Z" fill="white"/>
<path d="M132.188 77.1094H137.145V82.0664H132.188V77.1094Z" fill="black"/>
<path d="M136.594 77.1094H141V82.0664H136.594V77.1094Z" fill="white"/>
<path d="M0 80.9648H4.40625V85.9219H0V80.9648Z" fill="black"/>
<path d="M4.40625 80.9648H9.36328V85.9219H4.40625V80.9648Z" fill="white"/>
<path d="M8.8125 80.9648H13.7695V85.9219H8.8125V80.9648Z" fill="white"/>
<path d="M12.668 80.9648H17.625V85.9219H12.668V80.9648Z" fill="black"/>
<path d="M17.0742 80.9648H21.4805V85.9219H17.0742V80.9648Z" fill="black"/>
<path d="M21.4805 80.9648H26.4375V85.9219H21.4805V80.9648Z" fill="black"/>
<path d="M25.8867 80.9648H30.8438V85.9219H25.8867V80.9648Z" fill="white"/>
<path d="M29.7422 80.9648H34.6992V85.9219H29.7422V80.9648Z" fill="black"/>
<path d="M34.1484 80.9648H38.5547V85.9219H34.1484V80.9648Z" fill="white"/>
<path d="M38.5547 80.9648H43.5117V85.9219H38.5547V80.9648Z" fill="white"/>
<path d="M42.9609 80.9648H47.918V85.9219H42.9609V80.9648Z" fill="white"/>
<path d="M46.8164 80.9648H51.7734V85.9219H46.8164V80.9648Z" fill="white"/>
<path d="M51.2227 80.9648H55.6289V85.9219H51.2227V80.9648Z" fill="black"/>
<path d="M55.6289 80.9648H60.5859V85.9219H55.6289V80.9648Z" fill="black"/>
<path d="M60.0352 80.9648H64.9922V85.9219H60.0352V80.9648Z" fill="white"/>
<path d="M63.8906 80.9648H68.8477V85.9219H63.8906V80.9648Z" fill="white"/>
<path d="M68.2969 80.9648H72.7031V85.9219H68.2969V80.9648Z" fill="black"/>
<path d="M72.7031 80.9648H77.6602V85.9219H72.7031V80.9648Z" fill="white"/>
<path d="M77.1094 80.9648H82.0664V85.9219H77.1094V80.9648Z" fill="black"/>
<path d="M80.9648 80.9648H85.9219V85.9219H80.9648V80.9648Z" fill="black"/>
<path d="M85.3711 80.9648H89.7773V85.9219H85.3711V80.9648Z" fill="white"/>
<path d="M89.7773 80.9648H94.7344V85.9219H89.7773V80.9648Z" fill="black"/>
<path d="M94.1836 80.9648H99.1406V85.9219H94.1836V80.9648Z" fill="black"/>
<path d="M98.0391 80.9648H102.996V85.9219H98.0391V80.9648Z" fill="black"/>
<path d="M102.445 80.9648H106.852V85.9219H102.445V80.9648Z" fill="black"/>
<path d="M106.852 80.9648H111.809V85.9219H106.852V80.9648Z" fill="white"/>
<path d="M111.258 80.9648H116.215V85.9219H111.258V80.9648Z" fill="white"/>
<path d="M115.113 80.9648H120.07V85.9219H115.113V80.9648Z" fill="white"/>
<path d="M119.52 80.9648H123.926V85.9219H119.52V80.9648Z" fill="white"/>
<path d="M123.926 80.9648H128.883V85.9219H123.926V80.9648Z" fill="white"/>
<path d="M128.332 80.9648H133.289V85.9219H128.332V80.9648Z" fill="black"/>
<path d="M132.188 80.9648H137.145V85.9219H132.188V80.9648Z" fill="white"/>
<path d="M136.594 80.9648H141V85.9219H136.594V80.9648Z" fill="white"/>
<path d="M0 85.3711H4.40625V89.7773H0V85.3711Z" fill="white"/>
<path d="M4.40625 85.3711H9.36328V89.7773H4.40625V85.3711Z" fill="white"/>
<path d="M8.8125 85.3711H13.7695V89.7773H8.8125V85.3711Z" fill="black"/>
<path d="M12.668 85.3711H17.625V89.7773H12.668V85.3711Z" fill="black"/>
<path d="M17.0742 85.3711H21.4805V89.7773H17.0742V85.3711Z" fill="black"/>
<path d="M21.4805 85.3711H26.4375V89.7773H21.4805V85.3711Z" fill="black"/>
<path d="M25.8867 85.3711H30.8438V89.7773H25.8867V85.3711Z" fill="black"/>
<path d="M29.7422 85.3711H34.6992V89.7773H29.7422V85.3711Z" fill="black"/>
<path d="M34.1484 85.3711H38.5547V89.7773H34.1484V85.3711Z" fill="black"/>
<path d="M38.5547 85.3711H43.5117V89.7773H38.5547V85.3711Z" fill="white"/>
<path d="M42.9609 85.3711H47.918V89.7773H42.9609V85.3711Z" fill="black"/>
<path d="M46.8164 85.3711H51.7734V89.7773H46.8164V85.3711Z" fill="white"/>
<path d="M51.2227 85.3711H55.6289V89.7773H51.2227V85.3711Z" fill="black"/>
<path d="M55.6289 85.3711H60.5859V89.7773H55.6289V85.3711Z" fill="white"/>
<path d="M60.0352 85.3711H64.9922V89.7773H60.0352V85.3711Z" fill="black"/>
<path d="M63.8906 85.3711H68.8477V89.7773H63.8906V85.3711Z" fill="black"/>
<path d="M68.2969 85.3711H72.7031V89.7773H68.2969V85.3711Z" fill="black"/>
<path d="M72.7031 85.3711H77.6602V89.7773H72.7031V85.3711Z" fill="black"/>
<path d="M77.1094 85.3711H82.0664V89.7773H77.1094V85.3711Z" fill="white"/>
<path d="M80.9648 85.3711H85.9219V89.7773H80.9648V85.3711Z" fill="white"/>
<path d="M85.3711 85.3711H89.7773V89.7773H85.3711V85.3711Z" fill="black"/>
<path d="M89.7773 85.3711H94.7344V89.7773H89.7773V85.3711Z" fill="white"/>
<path d="M94.1836 85.3711H99.1406V89.7773H94.1836V85.3711Z" fill="black"/>
<path d="M98.0391 85.3711H102.996V89.7773H98.0391V85.3711Z" fill="white"/>
<path d="M102.445 85.3711H106.852V89.7773H102.445V85.3711Z" fill="black"/>
<path d="M106.852 85.3711H111.809V89.7773H106.852V85.3711Z" fill="white"/>
<path d="M111.258 85.3711H116.215V89.7773H111.258V85.3711Z" fill="white"/>
<path d="M115.113 85.3711H120.07V89.7773H115.113V85.3711Z" fill="black"/>
<path d="M119.52 85.3711H123.926V89.7773H119.52V85.3711Z" fill="black"/>
<path d="M123.926 85.3711H128.883V89.7773H123.926V85.3711Z" fill="white"/>
<path d="M128.332 85.3711H133.289V89.7773H128.332V85.3711Z" fill="white"/>
<path d="M132.188 85.3711H137.145V89.7773H132.188V85.3711Z" fill="black"/>
<path d="M136.594 85.3711H141V89.7773H136.594V85.3711Z" fill="white"/>
<path d="M0 89.7773H4.40625V94.7344H0V89.7773Z" fill="black"/>
<path d="M4.40625 89.7773H9.36328V94.7344H4.40625V89.7773Z" fill="white"/>
<path d="M8.8125 89.7773H13.7695V94.7344H8.8125V89.7773Z" fill="black"/>
<path d="M12.668 89.7773H17.625V94.7344H12.668V89.7773Z" fill="white"/>
<path d="M17.0742 89.7773H21.4805V94.7344H17.0742V89.7773Z" fill="black"/>
<path d="M21.4805 89.7773H26.4375V94.7344H21.4805V89.7773Z" fill="white"/>
<path d="M25.8867 89.7773H30.8438V94.7344H25.8867V89.7773Z" fill="white"/>
<path d="M29.7422 89.7773H34.6992V94.7344H29.7422V89.7773Z" fill="white"/>
<path d="M34.1484 89.7773H38.5547V94.7344H34.1484V89.7773Z" fill="white"/>
<path d="M38.5547 89.7773H43.5117V94.7344H38.5547V89.7773Z" fill="black"/>
<path d="M42.9609 89.7773H47.918V94.7344H42.9609V89.7773Z" fill="black"/>
<path d="M46.8164 89.7773H51.7734V94.7344H46.8164V89.7773Z" fill="white"/>
<path d="M51.2227 89.7773H55.6289V94.7344H51.2227V89.7773Z" fill="white"/>
<path d="M55.6289 89.7773H60.5859V94.7344H55.6289V89.7773Z" fill="white"/>
<path d="M60.0352 89.7773H64.9922V94.7344H60.0352V89.7773Z" fill="white"/>
<path d="M63.8906 89.7773H68.8477V94.7344H63.8906V89.7773Z" fill="white"/>
<path d="M68.2969 89.7773H72.7031V94.7344H68.2969V89.7773Z" fill="black"/>
<path d="M72.7031 89.7773H77.6602V94.7344H72.7031V89.7773Z" fill="white"/>
<path d="M77.1094 89.7773H82.0664V94.7344H77.1094V89.7773Z" fill="white"/>
<path d="M80.9648 89.7773H85.9219V94.7344H80.9648V89.7773Z" fill="black"/>
<path d="M85.3711 89.7773H89.7773V94.7344H85.3711V89.7773Z" fill="white"/>
<path d="M89.7773 89.7773H94.7344V94.7344H89.7773V89.7773Z" fill="white"/>
<path d="M94.1836 89.7773H99.1406V94.7344H94.1836V89.7773Z" fill="white"/>
<path d="M98.0391 89.7773H102.996V94.7344H98.0391V89.7773Z" fill="black"/>
<path d="M102.445 89.7773H106.852V94.7344H102.445V89.7773Z" fill="white"/>
<path d="M106.852 89.7773H111.809V94.7344H106.852V89.7773Z" fill="white"/>
<path d="M111.258 89.7773H116.215V94.7344H111.258V89.7773Z" fill="black"/>
<path d="M115.113 89.7773H120.07V94.7344H115.113V89.7773Z" fill="white"/>
<path d="M119.52 89.7773H123.926V94.7344H119.52V89.7773Z" fill="white"/>
<path d="M123.926 89.7773H128.883V94.7344H123.926V89.7773Z" fill="black"/>
<path d="M128.332 89.7773H133.289V94.7344H128.332V89.7773Z" fill="white"/>
<path d="M132.188 89.7773H137.145V94.7344H132.188V89.7773Z" fill="black"/>
<path d="M136.594 89.7773H141V94.7344H136.594V89.7773Z" fill="black"/>
<path d="M0 94.1836H4.40625V99.1406H0V94.1836Z" fill="black"/>
<path d="M4.40625 94.1836H9.36328V99.1406H4.40625V94.1836Z" fill="white"/>
<path d="M8.8125 94.1836H13.7695V99.1406H8.8125V94.1836Z" fill="black"/>
<path d="M12.668 94.1836H17.625V99.1406H12.668V94.1836Z" fill="black"/>
<path d="M17.0742 94.1836H21.4805V99.1406H17.0742V94.1836Z" fill="white"/>
<path d="M21.4805 94.1836H26.4375V99.1406H21.4805V94.1836Z" fill="white"/>
<path d="M25.8867 94.1836H30.8438V99.1406H25.8867V94.1836Z" fill="black"/>
<path d="M29.7422 94.1836H34.6992V99.1406H29.7422V94.1836Z" fill="black"/>
<path d="M34.1484 94.1836H38.5547V99.1406H34.1484V94.1836Z" fill="white"/>
<path d="M38.5547 94.1836H43.5117V99.1406H38.5547V94.1836Z" fill="black"/>
<path d="M42.9609 94.1836H47.918V99.1406H42.9609V94.1836Z" fill="black"/>
<path d="M46.8164 94.1836H51.7734V99.1406H46.8164V94.1836Z" fill="black"/>
<path d="M51.2227 94.1836H55.6289V99.1406H51.2227V94.1836Z" fill="black"/>
<path d="M55.6289 94.1836H60.5859V99.1406H55.6289V94.1836Z" fill="white"/>
<path d="M60.0352 94.1836H64.9922V99.1406H60.0352V94.1836Z" fill="white"/>
<path d="M63.8906 94.1836H68.8477V99.1406H63.8906V94.1836Z" fill="black"/>
<path d="M68.2969 94.1836H72.7031V99.1406H68.2969V94.1836Z" fill="black"/>
<path d="M72.7031 94.1836H77.6602V99.1406H72.7031V94.1836Z" fill="white"/>
<path d="M77.1094 94.1836H82.0664V99.1406H77.1094V94.1836Z" fill="white"/>
<path d="M80.9648 94.1836H85.9219V99.1406H80.9648V94.1836Z" fill="white"/>
<path d="M85.3711 94.1836H89.7773V99.1406H85.3711V94.1836Z" fill="black"/>
<path d="M89.7773 94.1836H94.7344V99.1406H89.7773V94.1836Z" fill="black"/>
<path d="M94.1836 94.1836H99.1406V99.1406H94.1836V94.1836Z" fill="black"/>
<path d="M98.0391 94.1836H102.996V99.1406H98.0391V94.1836Z" fill="white"/>
<path d="M102.445 94.1836H106.852V99.1406H102.445V94.1836Z" fill="black"/>
<path d="M106.852 94.1836H111.809V99.1406H106.852V94.1836Z" fill="black"/>
<path d="M111.258 94.1836H116.215V99.1406H111.258V94.1836Z" fill="black"/>
<path d="M115.113 94.1836H120.07V99.1406H115.113V94.1836Z" fill="white"/>
<path d="M119.52 94.1836H123.926V99.1406H119.52V94.1836Z" fill="white"/>
<path d="M123.926 94.1836H128.883V99.1406H123.926V94.1836Z" fill="black"/>
<path d="M128.332 94.1836H133.289V99.1406H128.332V94.1836Z" fill="white"/>
<path d="M132.188 94.1836H137.145V99.1406H132.188V94.1836Z" fill="black"/>
<path d="M136.594 94.1836H141V99.1406H136.594V94.1836Z" fill="white"/>
<path d="M0 98.0391H4.40625V102.996H0V98.0391Z" fill="black"/>
<path d="M4.40625 98.0391H9.36328V102.996H4.40625V98.0391Z" fill="white"/>
<path d="M8.8125 98.0391H13.7695V102.996H8.8125V98.0391Z" fill="black"/>
<path d="M12.668 98.0391H17.625V102.996H12.668V98.0391Z" fill="black"/>
<path d="M17.0742 98.0391H21.4805V102.996H17.0742V98.0391Z" fill="black"/>
<path d="M21.4805 98.0391H26.4375V102.996H21.4805V98.0391Z" fill="black"/>
<path d="M25.8867 98.0391H30.8438V102.996H25.8867V98.0391Z" fill="white"/>
<path d="M29.7422 98.0391H34.6992V102.996H29.7422V98.0391Z" fill="black"/>
<path d="M34.1484 98.0391H38.5547V102.996H34.1484V98.0391Z" fill="black"/>
<path d="M38.5547 98.0391H43.5117V102.996H38.5547V98.0391Z" fill="white"/>
<path d="M42.9609 98.0391H47.918V102.996H42.9609V98.0391Z" fill="white"/>
<path d="M46.8164 98.0391H51.7734V102.996H46.8164V98.0391Z" fill="black"/>
<path d="M51.2227 98.0391H55.6289V102.996H51.2227V98.0391Z" fill="white"/>
<path d="M55.6289 98.0391H60.5859V102.996H55.6289V98.0391Z" fill="white"/>
<path d="M60.0352 98.0391H64.9922V102.996H60.0352V98.0391Z" fill="black"/>
<path d="M63.8906 98.0391H68.8477V102.996H63.8906V98.0391Z" fill="black"/>
<path d="M68.2969 98.0391H72.7031V102.996H68.2969V98.0391Z" fill="black"/>
<path d="M72.7031 98.0391H77.6602V102.996H72.7031V98.0391Z" fill="white"/>
<path d="M77.1094 98.0391H82.0664V102.996H77.1094V98.0391Z" fill="black"/>
<path d="M80.9648 98.0391H85.9219V102.996H80.9648V98.0391Z" fill="black"/>
<path d="M85.3711 98.0391H89.7773V102.996H85.3711V98.0391Z" fill="white"/>
<path d="M89.7773 98.0391H94.7344V102.996H89.7773V98.0391Z" fill="black"/>
<path d="M94.1836 98.0391H99.1406V102.996H94.1836V98.0391Z" fill="white"/>
<path d="M98.0391 98.0391H102.996V102.996H98.0391V98.0391Z" fill="black"/>
<path d="M102.445 98.0391H106.852V102.996H102.445V98.0391Z" fill="black"/>
<path d="M106.852 98.0391H111.809V102.996H106.852V98.0391Z" fill="white"/>
<path d="M111.258 98.0391H116.215V102.996H111.258V98.0391Z" fill="black"/>
<path d="M115.113 98.0391H120.07V102.996H115.113V98.0391Z" fill="black"/>
<path d="M119.52 98.0391H123.926V102.996H119.52V98.0391Z" fill="black"/>
<path d="M123.926 98.0391H128.883V102.996H123.926V98.0391Z" fill="black"/>
<path d="M128.332 98.0391H133.289V102.996H128.332V98.0391Z" fill="black"/>
<path d="M132.188 98.0391H137.145V102.996H132.188V98.0391Z" fill="white"/>
<path d="M136.594 98.0391H141V102.996H136.594V98.0391Z" fill="white"/>
<path d="M0 102.445H4.40625V106.852H0V102.445Z" fill="black"/>
<path d="M4.40625 102.445H9.36328V106.852H4.40625V102.445Z" fill="white"/>
<path d="M8.8125 102.445H13.7695V106.852H8.8125V102.445Z" fill="white"/>
<path d="M12.668 102.445H17.625V106.852H12.668V102.445Z" fill="black"/>
<path d="M17.0742 102.445H21.4805V106.852H17.0742V102.445Z" fill="white"/>
<path d="M21.4805 102.445H26.4375V106.852H21.4805V102.445Z" fill="white"/>
<path d="M25.8867 102.445H30.8438V106.852H25.8867V102.445Z" fill="black"/>
<path d="M29.7422 102.445H34.6992V106.852H29.7422V102.445Z" fill="black"/>
<path d="M34.1484 102.445H38.5547V106.852H34.1484V102.445Z" fill="white"/>
<path d="M38.5547 102.445H43.5117V106.852H38.5547V102.445Z" fill="white"/>
<path d="M42.9609 102.445H47.918V106.852H42.9609V102.445Z" fill="white"/>
<path d="M46.8164 102.445H51.7734V106.852H46.8164V102.445Z" fill="black"/>
<path d="M51.2227 102.445H55.6289V106.852H51.2227V102.445Z" fill="white"/>
<path d="M55.6289 102.445H60.5859V106.852H55.6289V102.445Z" fill="white"/>
<path d="M60.0352 102.445H64.9922V106.852H60.0352V102.445Z" fill="white"/>
<path d="M63.8906 102.445H68.8477V106.852H63.8906V102.445Z" fill="white"/>
<path d="M68.2969 102.445H72.7031V106.852H68.2969V102.445Z" fill="white"/>
<path d="M72.7031 102.445H77.6602V106.852H72.7031V102.445Z" fill="black"/>
<path d="M77.1094 102.445H82.0664V106.852H77.1094V102.445Z" fill="white"/>
<path d="M80.9648 102.445H85.9219V106.852H80.9648V102.445Z" fill="white"/>
<path d="M85.3711 102.445H89.7773V106.852H85.3711V102.445Z" fill="white"/>
<path d="M89.7773 102.445H94.7344V106.852H89.7773V102.445Z" fill="white"/>
<path d="M94.1836 102.445H99.1406V106.852H94.1836V102.445Z" fill="black"/>
<path d="M98.0391 102.445H102.996V106.852H98.0391V102.445Z" fill="white"/>
<path d="M102.445 102.445H106.852V106.852H102.445V102.445Z" fill="black"/>
<path d="M106.852 102.445H111.809V106.852H106.852V102.445Z" fill="black"/>
<path d="M111.258 102.445H116.215V106.852H111.258V102.445Z" fill="black"/>
<path d="M115.113 102.445H120.07V106.852H115.113V102.445Z" fill="black"/>
<path d="M119.52 102.445H123.926V106.852H119.52V102.445Z" fill="black"/>
<path d="M123.926 102.445H128.883V106.852H123.926V102.445Z" fill="black"/>
<path d="M128.332 102.445H133.289V106.852H128.332V102.445Z" fill="white"/>
<path d="M132.188 102.445H137.145V106.852H132.188V102.445Z" fill="white"/>
<path d="M136.594 102.445H141V106.852H136.594V102.445Z" fill="black"/>
<path d="M0 106.852H4.40625V111.809H0V106.852Z" fill="white"/>
<path d="M4.40625 106.852H9.36328V111.809H4.40625V106.852Z" fill="white"/>
<path d="M8.8125 106.852H13.7695V111.809H8.8125V106.852Z" fill="white"/>
<path d="M12.668 106.852H17.625V111.809H12.668V106.852Z" fill="white"/>
<path d="M17.0742 106.852H21.4805V111.809H17.0742V106.852Z" fill="white"/>
<path d="M21.4805 106.852H26.4375V111.809H21.4805V106.852Z" fill="white"/>
<path d="M25.8867 106.852H30.8438V111.809H25.8867V106.852Z" fill="white"/>
<path d="M29.7422 106.852H34.6992V111.809H29.7422V106.852Z" fill="white"/>
<path d="M34.1484 106.852H38.5547V111.809H34.1484V106.852Z" fill="black"/>
<path d="M38.5547 106.852H43.5117V111.809H38.5547V106.852Z" fill="white"/>
<path d="M42.9609 106.852H47.918V111.809H42.9609V106.852Z" fill="black"/>
<path d="M46.8164 106.852H51.7734V111.809H46.8164V106.852Z" fill="white"/>
<path d="M51.2227 106.852H55.6289V111.809H51.2227V106.852Z" fill="black"/>
<path d="M55.6289 106.852H60.5859V111.809H55.6289V106.852Z" fill="black"/>
<path d="M60.0352 106.852H64.9922V111.809H60.0352V106.852Z" fill="black"/>
<path d="M63.8906 106.852H68.8477V111.809H63.8906V106.852Z" fill="black"/>
<path d="M68.2969 106.852H72.7031V111.809H68.2969V106.852Z" fill="black"/>
<path d="M72.7031 106.852H77.6602V111.809H72.7031V106.852Z" fill="black"/>
<path d="M77.1094 106.852H82.0664V111.809H77.1094V106.852Z" fill="white"/>
<path d="M80.9648 106.852H85.9219V111.809H80.9648V106.852Z" fill="black"/>
<path d="M85.3711 106.852H89.7773V111.809H85.3711V106.852Z" fill="black"/>
<path d="M89.7773 106.852H94.7344V111.809H89.7773V106.852Z" fill="white"/>
<path d="M94.1836 106.852H99.1406V111.809H94.1836V106.852Z" fill="white"/>
<path d="M98.0391 106.852H102.996V111.809H98.0391V106.852Z" fill="black"/>
<path d="M102.445 106.852H106.852V111.809H102.445V106.852Z" fill="black"/>
<path d="M106.852 106.852H111.809V111.809H106.852V106.852Z" fill="white"/>
<path d="M111.258 106.852H116.215V111.809H111.258V106.852Z" fill="white"/>
<path d="M115.113 106.852H120.07V111.809H115.113V106.852Z" fill="white"/>
<path d="M119.52 106.852H123.926V111.809H119.52V106.852Z" fill="black"/>
<path d="M123.926 106.852H128.883V111.809H123.926V106.852Z" fill="white"/>
<path d="M128.332 106.852H133.289V111.809H128.332V106.852Z" fill="black"/>
<path d="M132.188 106.852H137.145V111.809H132.188V106.852Z" fill="white"/>
<path d="M136.594 106.852H141V111.809H136.594V106.852Z" fill="black"/>
<path d="M0 111.258H4.40625V116.215H0V111.258Z" fill="black"/>
<path d="M4.40625 111.258H9.36328V116.215H4.40625V111.258Z" fill="black"/>
<path d="M8.8125 111.258H13.7695V116.215H8.8125V111.258Z" fill="black"/>
<path d="M12.668 111.258H17.625V116.215H12.668V111.258Z" fill="black"/>
<path d="M17.0742 111.258H21.4805V116.215H17.0742V111.258Z" fill="black"/>
<path d="M21.4805 111.258H26.4375V116.215H21.4805V111.258Z" fill="black"/>
<path d="M25.8867 111.258H30.8438V116.215H25.8867V111.258Z" fill="black"/>
<path d="M29.7422 111.258H34.6992V116.215H29.7422V111.258Z" fill="white"/>
<path d="M34.1484 111.258H38.5547V116.215H34.1484V111.258Z" fill="black"/>
<path d="M38.5547 111.258H43.5117V116.215H38.5547V111.258Z" fill="black"/>
<path d="M42.9609 111.258H47.918V116.215H42.9609V111.258Z" fill="black"/>
<path d="M46.8164 111.258H51.7734V116.215H46.8164V111.258Z" fill="white"/>
<path d="M51.2227 111.258H55.6289V116.215H51.2227V111.258Z" fill="white"/>
<path d="M55.6289 111.258H60.5859V116.215H55.6289V111.258Z" fill="black"/>
<path d="M60.0352 111.258H64.9922V116.215H60.0352V111.258Z" fill="black"/>
<path d="M63.8906 111.258H68.8477V116.215H63.8906V111.258Z" fill="black"/>
<path d="M68.2969 111.258H72.7031V116.215H68.2969V111.258Z" fill="white"/>
<path d="M72.7031 111.258H77.6602V116.215H72.7031V111.258Z" fill="white"/>
<path d="M77.1094 111.258H82.0664V116.215H77.1094V111.258Z" fill="black"/>
<path d="M80.9648 111.258H85.9219V116.215H80.9648V111.258Z" fill="white"/>
<path d="M85.3711 111.258H89.7773V116.215H85.3711V111.258Z" fill="white"/>
<path d="M89.7773 111.258H94.7344V116.215H89.7773V111.258Z" fill="black"/>
<path d="M94.1836 111.258H99.1406V116.215H94.1836V111.258Z" fill="black"/>
<path d="M98.0391 111.258H102.996V116.215H98.0391V111.258Z" fill="black"/>
<path d="M102.445 111.258H106.852V116.215H102.445V111.258Z" fill="black"/>
<path d="M106.852 111.258H111.809V116.215H106.852V111.258Z" fill="white"/>
<path d="M111.258 111.258H116.215V116.215H111.258V111.258Z" fill="black"/>
<path d="M115.113 111.258H120.07V116.215H115.113V111.258Z" fill="white"/>
<path d="M119.52 111.258H123.926V116.215H119.52V111.258Z" fill="black"/>
<path d="M123.926 111.258H128.883V116.215H123.926V111.258Z" fill="white"/>
<path d="M128.332 111.258H133.289V116.215H128.332V111.258Z" fill="white"/>
<path d="M132.188 111.258H137.145V116.215H132.188V111.258Z" fill="black"/>
<path d="M136.594 111.258H141V116.215H136.594V111.258Z" fill="white"/>
<path d="M0 115.113H4.40625V120.07H0V115.113Z" fill="black"/>
<path d="M4.40625 115.113H9.36328V120.07H4.40625V115.113Z" fill="white"/>
<path d="M8.8125 115.113H13.7695V120.07H8.8125V115.113Z" fill="white"/>
<path d="M12.668 115.113H17.625V120.07H12.668V115.113Z" fill="white"/>
<path d="M17.0742 115.113H21.4805V120.07H17.0742V115.113Z" fill="white"/>
<path d="M21.4805 115.113H26.4375V120.07H21.4805V115.113Z" fill="white"/>
<path d="M25.8867 115.113H30.8438V120.07H25.8867V115.113Z" fill="black"/>
<path d="M29.7422 115.113H34.6992V120.07H29.7422V115.113Z" fill="white"/>
<path d="M34.1484 115.113H38.5547V120.07H34.1484V115.113Z" fill="white"/>
<path d="M38.5547 115.113H43.5117V120.07H38.5547V115.113Z" fill="white"/>
<path d="M42.9609 115.113H47.918V120.07H42.9609V115.113Z" fill="black"/>
<path d="M46.8164 115.113H51.7734V120.07H46.8164V115.113Z" fill="white"/>
<path d="M51.2227 115.113H55.6289V120.07H51.2227V115.113Z" fill="black"/>
<path d="M55.6289 115.113H60.5859V120.07H55.6289V115.113Z" fill="black"/>
<path d="M60.0352 115.113H64.9922V120.07H60.0352V115.113Z" fill="white"/>
<path d="M63.8906 115.113H68.8477V120.07H63.8906V115.113Z" fill="black"/>
<path d="M68.2969 115.113H72.7031V120.07H68.2969V115.113Z" fill="black"/>
<path d="M72.7031 115.113H77.6602V120.07H72.7031V115.113Z" fill="white"/>
<path d="M77.1094 115.113H82.0664V120.07H77.1094V115.113Z" fill="white"/>
<path d="M80.9648 115.113H85.9219V120.07H80.9648V115.113Z" fill="black"/>
<path d="M85.3711 115.113H89.7773V120.07H85.3711V115.113Z" fill="white"/>
<path d="M89.7773 115.113H94.7344V120.07H89.7773V115.113Z" fill="black"/>
<path d="M94.1836 115.113H99.1406V120.07H94.1836V115.113Z" fill="white"/>
<path d="M98.0391 115.113H102.996V120.07H98.0391V115.113Z" fill="black"/>
<path d="M102.445 115.113H106.852V120.07H102.445V115.113Z" fill="black"/>
<path d="M106.852 115.113H111.809V120.07H106.852V115.113Z" fill="white"/>
<path d="M111.258 115.113H116.215V120.07H111.258V115.113Z" fill="white"/>
<path d="M115.113 115.113H120.07V120.07H115.113V115.113Z" fill="white"/>
<path d="M119.52 115.113H123.926V120.07H119.52V115.113Z" fill="black"/>
<path d="M123.926 115.113H128.883V120.07H123.926V115.113Z" fill="black"/>
<path d="M128.332 115.113H133.289V120.07H128.332V115.113Z" fill="black"/>
<path d="M132.188 115.113H137.145V120.07H132.188V115.113Z" fill="black"/>
<path d="M136.594 115.113H141V120.07H136.594V115.113Z" fill="black"/>
<path d="M0 119.52H4.40625V123.926H0V119.52Z" fill="black"/>
<path d="M4.40625 119.52H9.36328V123.926H4.40625V119.52Z" fill="white"/>
<path d="M8.8125 119.52H13.7695V123.926H8.8125V119.52Z" fill="black"/>
<path d="M12.668 119.52H17.625V123.926H12.668V119.52Z" fill="black"/>
<path d="M17.0742 119.52H21.4805V123.926H17.0742V119.52Z" fill="black"/>
<path d="M21.4805 119.52H26.4375V123.926H21.4805V119.52Z" fill="white"/>
<path d="M25.8867 119.52H30.8438V123.926H25.8867V119.52Z" fill="black"/>
<path d="M29.7422 119.52H34.6992V123.926H29.7422V119.52Z" fill="white"/>
<path d="M34.1484 119.52H38.5547V123.926H34.1484V119.52Z" fill="black"/>
<path d="M38.5547 119.52H43.5117V123.926H38.5547V119.52Z" fill="white"/>
<path d="M42.9609 119.52H47.918V123.926H42.9609V119.52Z" fill="white"/>
<path d="M46.8164 119.52H51.7734V123.926H46.8164V119.52Z" fill="white"/>
<path d="M51.2227 119.52H55.6289V123.926H51.2227V119.52Z" fill="black"/>
<path d="M55.6289 119.52H60.5859V123.926H55.6289V119.52Z" fill="white"/>
<path d="M60.0352 119.52H64.9922V123.926H60.0352V119.52Z" fill="black"/>
<path d="M63.8906 119.52H68.8477V123.926H63.8906V119.52Z" fill="black"/>
<path d="M68.2969 119.52H72.7031V123.926H68.2969V119.52Z" fill="black"/>
<path d="M72.7031 119.52H77.6602V123.926H72.7031V119.52Z" fill="black"/>
<path d="M77.1094 119.52H82.0664V123.926H77.1094V119.52Z" fill="white"/>
<path d="M80.9648 119.52H85.9219V123.926H80.9648V119.52Z" fill="black"/>
<path d="M85.3711 119.52H89.7773V123.926H85.3711V119.52Z" fill="black"/>
<path d="M89.7773 119.52H94.7344V123.926H89.7773V119.52Z" fill="white"/>
<path d="M94.1836 119.52H99.1406V123.926H94.1836V119.52Z" fill="white"/>
<path d="M98.0391 119.52H102.996V123.926H98.0391V119.52Z" fill="white"/>
<path d="M102.445 119.52H106.852V123.926H102.445V119.52Z" fill="black"/>
<path d="M106.852 119.52H111.809V123.926H106.852V119.52Z" fill="black"/>
<path d="M111.258 119.52H116.215V123.926H111.258V119.52Z" fill="black"/>
<path d="M115.113 119.52H120.07V123.926H115.113V119.52Z" fill="black"/>
<path d="M119.52 119.52H123.926V123.926H119.52V119.52Z" fill="black"/>
<path d="M123.926 119.52H128.883V123.926H123.926V119.52Z" fill="white"/>
<path d="M128.332 119.52H133.289V123.926H128.332V119.52Z" fill="white"/>
<path d="M132.188 119.52H137.145V123.926H132.188V119.52Z" fill="black"/>
<path d="M136.594 119.52H141V123.926H136.594V119.52Z" fill="white"/>
<path d="M0 123.926H4.40625V128.883H0V123.926Z" fill="black"/>
<path d="M4.40625 123.926H9.36328V128.883H4.40625V123.926Z" fill="white"/>
<path d="M8.8125 123.926H13.7695V128.883H8.8125V123.926Z" fill="black"/>
<path d="M12.668 123.926H17.625V128.883H12.668V123.926Z" fill="black"/>
<path d="M17.0742 123.926H21.4805V128.883H17.0742V123.926Z" fill="black"/>
<path d="M21.4805 123.926H26.4375V128.883H21.4805V123.926Z" fill="white"/>
<path d="M25.8867 123.926H30.8438V128.883H25.8867V123.926Z" fill="black"/>
<path d="M29.7422 123.926H34.6992V128.883H29.7422V123.926Z" fill="white"/>
<path d="M34.1484 123.926H38.5547V128.883H34.1484V123.926Z" fill="black"/>
<path d="M38.5547 123.926H43.5117V128.883H38.5547V123.926Z" fill="black"/>
<path d="M42.9609 123.926H47.918V128.883H42.9609V123.926Z" fill="white"/>
<path d="M46.8164 123.926H51.7734V128.883H46.8164V123.926Z" fill="white"/>
<path d="M51.2227 123.926H55.6289V128.883H51.2227V123.926Z" fill="white"/>
<path d="M55.6289 123.926H60.5859V128.883H55.6289V123.926Z" fill="white"/>
<path d="M60.0352 123.926H64.9922V128.883H60.0352V123.926Z" fill="white"/>
<path d="M63.8906 123.926H68.8477V128.883H63.8906V123.926Z" fill="black"/>
<path d="M68.2969 123.926H72.7031V128.883H68.2969V123.926Z" fill="black"/>
<path d="M72.7031 123.926H77.6602V128.883H72.7031V123.926Z" fill="white"/>
<path d="M77.1094 123.926H82.0664V128.883H77.1094V123.926Z" fill="white"/>
<path d="M80.9648 123.926H85.9219V128.883H80.9648V123.926Z" fill="white"/>
<path d="M85.3711 123.926H89.7773V128.883H85.3711V123.926Z" fill="black"/>
<path d="M89.7773 123.926H94.7344V128.883H89.7773V123.926Z" fill="white"/>
<path d="M94.1836 123.926H99.1406V128.883H94.1836V123.926Z" fill="white"/>
<path d="M98.0391 123.926H102.996V128.883H98.0391V123.926Z" fill="black"/>
<path d="M102.445 123.926H106.852V128.883H102.445V123.926Z" fill="black"/>
<path d="M106.852 123.926H111.809V128.883H106.852V123.926Z" fill="black"/>
<path d="M111.258 123.926H116.215V128.883H111.258V123.926Z" fill="white"/>
<path d="M115.113 123.926H120.07V128.883H115.113V123.926Z" fill="black"/>
<path d="M119.52 123.926H123.926V128.883H119.52V123.926Z" fill="black"/>
<path d="M123.926 123.926H128.883V128.883H123.926V123.926Z" fill="white"/>
<path d="M128.332 123.926H133.289V128.883H128.332V123.926Z" fill="black"/>
<path d="M132.188 123.926H137.145V128.883H132.188V123.926Z" fill="black"/>
<path d="M136.594 123.926H141V128.883H136.594V123.926Z" fill="black"/>
<path d="M0 128.332H4.40625V133.289H0V128.332Z" fill="black"/>
<path d="M4.40625 128.332H9.36328V133.289H4.40625V128.332Z" fill="white"/>
<path d="M8.8125 128.332H13.7695V133.289H8.8125V128.332Z" fill="black"/>
<path d="M12.668 128.332H17.625V133.289H12.668V128.332Z" fill="black"/>
<path d="M17.0742 128.332H21.4805V133.289H17.0742V128.332Z" fill="black"/>
<path d="M21.4805 128.332H26.4375V133.289H21.4805V128.332Z" fill="white"/>
<path d="M25.8867 128.332H30.8438V133.289H25.8867V128.332Z" fill="black"/>
<path d="M29.7422 128.332H34.6992V133.289H29.7422V128.332Z" fill="white"/>
<path d="M34.1484 128.332H38.5547V133.289H34.1484V128.332Z" fill="black"/>
<path d="M38.5547 128.332H43.5117V133.289H38.5547V128.332Z" fill="black"/>
<path d="M42.9609 128.332H47.918V133.289H42.9609V128.332Z" fill="black"/>
<path d="M46.8164 128.332H51.7734V133.289H46.8164V128.332Z" fill="black"/>
<path d="M51.2227 128.332H55.6289V133.289H51.2227V128.332Z" fill="black"/>
<path d="M55.6289 128.332H60.5859V133.289H55.6289V128.332Z" fill="white"/>
<path d="M60.0352 128.332H64.9922V133.289H60.0352V128.332Z" fill="white"/>
<path d="M63.8906 128.332H68.8477V133.289H63.8906V128.332Z" fill="black"/>
<path d="M68.2969 128.332H72.7031V133.289H68.2969V128.332Z" fill="black"/>
<path d="M72.7031 128.332H77.6602V133.289H72.7031V128.332Z" fill="black"/>
<path d="M77.1094 128.332H82.0664V133.289H77.1094V128.332Z" fill="black"/>
<path d="M80.9648 128.332H85.9219V133.289H80.9648V128.332Z" fill="white"/>
<path d="M85.3711 128.332H89.7773V133.289H85.3711V128.332Z" fill="white"/>
<path d="M89.7773 128.332H94.7344V133.289H89.7773V128.332Z" fill="white"/>
<path d="M94.1836 128.332H99.1406V133.289H94.1836V128.332Z" fill="black"/>
<path d="M98.0391 128.332H102.996V133.289H98.0391V128.332Z" fill="black"/>
<path d="M102.445 128.332H106.852V133.289H102.445V128.332Z" fill="black"/>
<path d="M106.852 128.332H111.809V133.289H106.852V128.332Z" fill="black"/>
<path d="M111.258 128.332H116.215V133.289H111.258V128.332Z" fill="black"/>
<path d="M115.113 128.332H120.07V133.289H115.113V128.332Z" fill="white"/>
<path d="M119.52 128.332H123.926V133.289H119.52V128.332Z" fill="white"/>
<path d="M123.926 128.332H128.883V133.289H123.926V128.332Z" fill="black"/>
<path d="M128.332 128.332H133.289V133.289H128.332V128.332Z" fill="black"/>
<path d="M132.188 128.332H137.145V133.289H132.188V128.332Z" fill="white"/>
<path d="M136.594 128.332H141V133.289H136.594V128.332Z" fill="white"/>
<path d="M0 132.188H4.40625V137.145H0V132.188Z" fill="black"/>
<path d="M4.40625 132.188H9.36328V137.145H4.40625V132.188Z" fill="white"/>
<path d="M8.8125 132.188H13.7695V137.145H8.8125V132.188Z" fill="white"/>
<path d="M12.668 132.188H17.625V137.145H12.668V132.188Z" fill="white"/>
<path d="M17.0742 132.188H21.4805V137.145H17.0742V132.188Z" fill="white"/>
<path d="M21.4805 132.188H26.4375V137.145H21.4805V132.188Z" fill="white"/>
<path d="M25.8867 132.188H30.8438V137.145H25.8867V132.188Z" fill="black"/>
<path d="M29.7422 132.188H34.6992V137.145H29.7422V132.188Z" fill="white"/>
<path d="M34.1484 132.188H38.5547V137.145H34.1484V132.188Z" fill="black"/>
<path d="M38.5547 132.188H43.5117V137.145H38.5547V132.188Z" fill="white"/>
<path d="M42.9609 132.188H47.918V137.145H42.9609V132.188Z" fill="black"/>
<path d="M46.8164 132.188H51.7734V137.145H46.8164V132.188Z" fill="black"/>
<path d="M51.2227 132.188H55.6289V137.145H51.2227V132.188Z" fill="white"/>
<path d="M55.6289 132.188H60.5859V137.145H55.6289V132.188Z" fill="white"/>
<path d="M60.0352 132.188H64.9922V137.145H60.0352V132.188Z" fill="black"/>
<path d="M63.8906 132.188H68.8477V137.145H63.8906V132.188Z" fill="white"/>
<path d="M68.2969 132.188H72.7031V137.145H68.2969V132.188Z" fill="white"/>
<path d="M72.7031 132.188H77.6602V137.145H72.7031V132.188Z" fill="white"/>
<path d="M77.1094 132.188H82.0664V137.145H77.1094V132.188Z" fill="black"/>
<path d="M80.9648 132.188H85.9219V137.145H80.9648V132.188Z" fill="black"/>
<path d="M85.3711 132.188H89.7773V137.145H85.3711V132.188Z" fill="white"/>
<path d="M89.7773 132.188H94.7344V137.145H89.7773V132.188Z" fill="black"/>
<path d="M94.1836 132.188H99.1406V137.145H94.1836V132.188Z" fill="black"/>
<path d="M98.0391 132.188H102.996V137.145H98.0391V132.188Z" fill="white"/>
<path d="M102.445 132.188H106.852V137.145H102.445V132.188Z" fill="white"/>
<path d="M106.852 132.188H111.809V137.145H106.852V132.188Z" fill="black"/>
<path d="M111.258 132.188H116.215V137.145H111.258V132.188Z" fill="white"/>
<path d="M115.113 132.188H120.07V137.145H115.113V132.188Z" fill="black"/>
<path d="M119.52 132.188H123.926V137.145H119.52V132.188Z" fill="white"/>
<path d="M123.926 132.188H128.883V137.145H123.926V132.188Z" fill="black"/>
<path d="M128.332 132.188H133.289V137.145H128.332V132.188Z" fill="black"/>
<path d="M132.188 132.188H137.145V137.145H132.188V132.188Z" fill="white"/>
<path d="M136.594 132.188H141V137.145H136.594V132.188Z" fill="white"/>
<path d="M0 136.594H4.40625V141H0V136.594Z" fill="black"/>
<path d="M4.40625 136.594H9.36328V141H4.40625V136.594Z" fill="black"/>
<path d="M8.8125 136.594H13.7695V141H8.8125V136.594Z" fill="black"/>
<path d="M12.668 136.594H17.625V141H12.668V136.594Z" fill="black"/>
<path d="M17.0742 136.594H21.4805V141H17.0742V136.594Z" fill="black"/>
<path d="M21.4805 136.594H26.4375V141H21.4805V136.594Z" fill="black"/>
<path d="M25.8867 136.594H30.8438V141H25.8867V136.594Z" fill="black"/>
<path d="M29.7422 136.594H34.6992V141H29.7422V136.594Z" fill="white"/>
<path d="M34.1484 136.594H38.5547V141H34.1484V136.594Z" fill="black"/>
<path d="M38.5547 136.594H43.5117V141H38.5547V136.594Z" fill="white"/>
<path d="M42.9609 136.594H47.918V141H42.9609V136.594Z" fill="black"/>
<path d="M46.8164 136.594H51.7734V141H46.8164V136.594Z" fill="black"/>
<path d="M51.2227 136.594H55.6289V141H51.2227V136.594Z" fill="white"/>
<path d="M55.6289 136.594H60.5859V141H55.6289V136.594Z" fill="white"/>
<path d="M60.0352 136.594H64.9922V141H60.0352V136.594Z" fill="white"/>
<path d="M63.8906 136.594H68.8477V141H63.8906V136.594Z" fill="black"/>
<path d="M68.2969 136.594H72.7031V141H68.2969V136.594Z" fill="black"/>
<path d="M72.7031 136.594H77.6602V141H72.7031V136.594Z" fill="black"/>
<path d="M77.1094 136.594H82.0664V141H77.1094V136.594Z" fill="black"/>
<path d="M80.9648 136.594H85.9219V141H80.9648V136.594Z" fill="black"/>
<path d="M85.3711 136.594H89.7773V141H85.3711V136.594Z" fill="black"/>
<path d="M89.7773 136.594H94.7344V141H89.7773V136.594Z" fill="white"/>
<path d="M94.1836 136.594H99.1406V141H94.1836V136.594Z" fill="black"/>
<path d="M98.0391 136.594H102.996V141H98.0391V136.594Z" fill="black"/>
<path d="M102.445 136.594H106.852V141H102.445V136.594Z" fill="black"/>
<path d="M106.852 136.594H111.809V141H106.852V136.594Z" fill="white"/>
<path d="M111.258 136.594H116.215V141H111.258V136.594Z" fill="black"/>
<path d="M115.113 136.594H120.07V141H115.113V136.594Z" fill="black"/>
<path d="M119.52 136.594H123.926V141H119.52V136.594Z" fill="white"/>
<path d="M123.926 136.594H128.883V141H123.926V136.594Z" fill="black"/>
<path d="M128.332 136.594H133.289V141H128.332V136.594Z" fill="white"/>
<path d="M132.188 136.594H137.145V141H132.188V136.594Z" fill="black"/>
<path d="M136.594 136.594H141V141H136.594V136.594Z" fill="white"/>
</svg>
