<svg width="12" height="12" viewBox="0 0 12 12" fill="none" xmlns="http://www.w3.org/2000/svg">
<path fill-rule="evenodd" clip-rule="evenodd" d="M6.48878 1C6.36943 1 6.25497 1.04789 6.17058 1.13314C6.08619 1.21839 6.03878 1.33401 6.03878 1.45456V9.44882L2.75678 6.13354C2.67147 6.05324 2.55864 6.00953 2.44206 6.01161C2.32548 6.01369 2.21425 6.06139 2.1318 6.14468C2.04935 6.22796 2.00213 6.34032 2.00007 6.45808C1.99801 6.57585 2.04129 6.68982 2.12077 6.77599L6.17078 10.8671C6.25515 10.9522 6.36952 11 6.48878 11C6.60803 11 6.7224 10.9522 6.80677 10.8671L10.8568 6.77599C10.901 6.73437 10.9364 6.68419 10.961 6.62843C10.9856 6.57267 10.9989 6.51248 10.9999 6.45144C11.001 6.39041 10.9899 6.32978 10.9672 6.27318C10.9446 6.21658 10.9109 6.16516 10.8682 6.122C10.8255 6.07884 10.7746 6.04481 10.7185 6.02194C10.6625 5.99908 10.6025 5.98785 10.5421 5.98893C10.4816 5.99001 10.4221 6.00337 10.3669 6.02821C10.3117 6.05306 10.262 6.08888 10.2208 6.13354L6.93878 9.44882V1.45456C6.93878 1.33401 6.89136 1.21839 6.80697 1.13314C6.72258 1.04789 6.60812 1 6.48878 1Z" fill="#75242B"/>
</svg>
